<svg version="1.1" id="Layer_1" xmlns="http://www.w3.org/2000/svg" xmlns:xlink="http://www.w3.org/1999/xlink" x="0px" y="0px"
	 width="100%" viewBox="0 0 1254 1254" enable-background="new 0 0 1254 1254" xml:space="preserve">
<path fill="#FEFEFE" opacity="1.000000" stroke="none" 
	d="
M731.000000,1255.000000 
	C487.333344,1255.000000 244.166672,1255.000000 1.000000,1255.000000 
	C1.000000,837.000000 1.000000,419.000000 1.000000,1.000000 
	C419.000000,1.000000 837.000000,1.000000 1255.000000,1.000000 
	C1255.000000,419.000000 1255.000000,837.000000 1255.000000,1255.000000 
	C1080.500000,1255.000000 906.000000,1255.000000 731.000000,1255.000000 
M891.730652,636.041321 
	C891.848206,635.688538 891.965759,635.335693 892.430420,634.423218 
	C895.322021,630.895996 898.821960,627.702393 900.977661,623.771667 
	C905.379456,615.745483 909.057861,607.322571 913.283264,598.751953 
	C913.403442,598.517090 913.508179,598.275574 914.078857,597.505066 
	C914.071228,597.037903 914.063599,596.570740 914.290466,595.781372 
	C914.390381,595.537415 914.477417,595.289001 915.071594,594.577698 
	C915.348145,593.709595 915.624695,592.841553 916.338318,591.455017 
	C916.542236,589.947449 916.746155,588.439819 917.410950,586.352966 
	C917.523621,585.876892 917.636353,585.400879 918.219788,584.403320 
	C918.279236,583.244873 918.338684,582.086487 918.686157,580.305176 
	C918.726440,579.852539 918.766724,579.399841 919.151123,578.654297 
	C919.101257,578.104126 919.051453,577.553955 919.185608,576.260925 
	C919.394836,574.488403 919.604065,572.715942 920.268311,570.276367 
	C920.481201,564.793213 920.874390,559.310181 920.878906,553.826904 
	C920.920410,503.183533 920.891174,452.540070 920.889954,401.896667 
	C920.888977,364.413879 921.130859,326.928619 920.733521,289.450104 
	C920.639771,280.607635 918.410400,271.787781 917.140137,262.464508 
	C917.140137,262.464508 916.975647,261.999084 917.047119,261.345001 
	C916.741943,260.552612 916.436707,259.760223 916.068420,258.201691 
	C909.413940,237.053528 897.660034,219.273026 880.428833,205.323608 
	C866.820251,194.306793 851.593079,186.507584 833.587769,183.553741 
	C833.033142,183.501785 832.478577,183.449829 831.226685,183.126740 
	C830.483643,183.088730 829.740540,183.050705 828.198608,182.770782 
	C826.388123,182.538803 824.578003,182.107941 822.767090,182.104645 
	C795.511292,182.055222 768.255493,182.062042 740.072205,181.907059 
	C713.047791,181.958755 686.023376,182.010452 658.071106,181.917267 
	C644.636414,181.994858 631.201660,182.072464 617.039856,181.958389 
	C602.359131,181.995667 587.678467,182.032944 572.070190,181.925598 
	C560.304443,182.003189 548.538696,182.080765 536.035889,181.968613 
	C521.357422,182.003708 506.678894,182.038788 491.073364,181.923203 
	C473.048187,181.989258 455.023010,182.055298 436.137909,181.976059 
	C426.970642,183.478134 417.673370,184.452927 408.682159,186.669235 
	C402.771240,188.126251 397.301819,191.374268 390.951538,193.923920 
	C358.459015,211.802109 338.716492,238.891708 333.922180,275.743683 
	C332.087952,289.842499 332.887115,304.309387 332.840546,318.609711 
	C332.756500,344.405884 332.939178,370.202911 332.834076,396.923218 
	C332.894012,410.948425 332.953949,424.973663 332.839264,439.922943 
	C332.889191,462.281616 332.939087,484.640320 332.817352,507.923584 
	C332.795776,523.404602 332.521545,538.891052 332.851990,554.364563 
	C333.036011,562.980896 333.511139,571.711670 335.115387,580.151306 
	C338.289551,596.850220 344.715912,612.285828 356.267853,625.946655 
	C357.337463,627.391235 358.322998,628.907837 359.489716,630.269104 
	C370.809601,643.476624 384.521271,653.531677 400.381622,660.549316 
	C405.210327,662.685730 408.189362,666.038269 409.857758,670.790405 
	C411.280273,674.842224 412.534637,678.953186 413.903076,683.820374 
	C417.379120,695.601318 420.813141,707.394897 424.342041,719.160034 
	C428.528442,733.117004 441.118866,736.326294 451.581635,726.248413 
	C465.104034,713.223572 478.603516,700.170105 492.377808,687.415100 
	C495.636505,684.397522 499.696411,681.875244 503.829132,680.241943 
	C515.404541,675.667236 527.622681,674.527100 540.926208,675.038025 
	C570.282837,674.994080 599.639404,674.950134 629.923523,675.056458 
	C655.614990,675.007507 681.306519,674.958618 707.925659,675.056396 
	C729.283569,675.002075 750.641418,674.947815 772.926941,675.040894 
	C785.379028,675.049377 797.834595,675.248779 810.282288,675.018616 
	C826.431152,674.720154 841.763550,670.905273 856.789978,663.218323 
	C858.195068,662.437500 859.600220,661.656677 861.648743,660.722168 
	C863.492920,659.512939 865.337036,658.303650 867.724854,656.973389 
	C868.151123,656.621826 868.577454,656.270325 869.611816,655.744080 
	C870.770508,654.840515 871.929199,653.937012 873.597961,652.912842 
	C874.106750,652.444458 874.615601,651.976074 875.678772,651.219299 
	C875.874268,650.875061 876.069763,650.530762 876.246155,650.332031 
	C876.246155,650.332031 876.391479,650.352600 877.023926,650.177979 
	C879.337891,648.115356 881.651855,646.052734 884.561584,643.705505 
	C886.364380,641.769897 888.167175,639.834290 890.479431,637.630371 
	C890.745911,637.137878 891.012329,636.645386 891.157349,636.110352 
	C891.157349,636.110352 891.171387,636.238281 891.730652,636.041321 
M496.052887,764.247314 
	C489.494049,756.001465 480.671082,753.355774 470.697815,756.644104 
	C461.693695,759.612976 456.815063,766.705383 456.805786,777.386475 
	C456.753418,837.788879 456.680481,898.191589 456.936707,958.592834 
	C456.954254,962.732361 459.596161,966.860657 461.183289,971.642944 
	C467.339996,979.002563 475.286469,981.288391 484.329895,978.988770 
	C492.033295,977.029907 497.469177,972.315125 499.158386,963.532715 
	C499.124115,963.361511 499.089813,963.190247 499.405212,962.272827 
	C499.521790,961.451599 499.740234,960.630432 499.740387,959.809204 
	C499.751678,898.561707 499.807343,837.313965 499.589844,776.067261 
	C499.576630,772.348450 497.382904,768.637451 496.052887,764.247314 
M662.946838,813.549744 
	C651.094727,807.695068 638.460571,805.154968 625.340271,804.634277 
	C581.559753,802.896851 544.103394,830.821045 534.245239,872.562500 
	C525.571228,909.289917 538.758850,946.360596 568.031738,967.537231 
	C597.058655,988.535889 641.094238,990.309265 671.498535,970.868225 
	C700.985107,952.014160 713.717834,923.955811 711.991943,889.642883 
	C710.278137,855.569519 694.078491,829.979248 662.946838,813.549744 
M257.083405,878.551514 
	C252.196381,911.370300 260.671478,939.821594 285.939301,961.943848 
	C309.694580,982.741943 338.038025,987.584900 368.360596,982.390442 
	C387.394196,979.129883 404.146667,970.959412 416.903564,955.913818 
	C421.251617,950.785706 423.975861,944.880737 422.553345,937.972717 
	C420.861450,929.756409 415.711456,924.211182 407.704681,922.033386 
	C399.380981,919.769287 392.405975,922.696289 386.651886,929.041138 
	C367.935425,949.679199 331.502136,949.792786 312.772064,929.339661 
	C294.899536,909.822876 295.687134,876.838074 314.464813,858.452698 
	C333.574585,839.742126 366.692108,839.796814 386.049591,858.570862 
	C394.082458,866.361633 405.058350,867.227539 413.178101,860.710999 
	C421.706818,853.866211 423.804718,842.123657 417.222351,833.013794 
	C413.789185,828.262390 409.248199,823.999695 404.437469,820.608826 
	C382.995148,805.494873 358.796112,802.115417 333.416260,805.531067 
	C292.857544,810.989380 263.478943,841.285095 257.083405,878.551514 
M804.364685,912.051636 
	C811.679810,914.218445 819.363647,915.584351 826.222229,918.742676 
	C836.132507,923.306274 836.746460,935.169189 827.601379,941.254333 
	C823.854675,943.747375 819.149780,945.476013 814.680359,946.087463 
	C797.728516,948.406555 782.308838,943.961975 768.517822,933.941956 
	C762.481140,929.555786 755.973633,928.491577 749.147400,931.193970 
	C734.940552,936.818054 732.357056,955.229065 744.545898,964.434998 
	C757.789001,974.437073 773.228638,979.134583 789.398804,981.372559 
	C810.246887,984.257996 830.762024,983.255371 849.649170,972.732117 
	C868.126709,962.437073 875.990540,946.028076 874.863586,925.277283 
	C873.796875,905.634460 862.804565,892.843628 845.131775,885.842468 
	C835.746704,882.124573 825.783813,879.837830 816.031616,877.082458 
	C807.558167,874.688477 798.929626,872.814697 790.532471,870.189941 
	C785.295959,868.552979 781.578247,864.849609 781.474304,858.891907 
	C781.366272,852.703613 784.700745,848.341980 790.170898,846.079895 
	C793.950256,844.517090 798.120667,843.475464 802.195251,843.129211 
	C815.414978,842.006042 827.511658,845.357239 838.614868,852.777222 
	C845.413086,857.320374 852.783875,857.601624 859.760071,853.027832 
	C866.546631,848.578369 869.122803,841.995789 867.964417,834.012390 
	C866.884399,826.569458 862.100037,821.745667 855.873047,818.412659 
	C827.354126,803.147827 797.902466,801.258240 768.518372,814.909546 
	C748.803772,824.068542 738.707275,840.631165 739.365906,862.695251 
	C739.996948,883.833679 752.664246,896.177246 771.373596,902.877380 
	C781.828125,906.621399 792.796753,908.930237 804.364685,912.051636 
M948.033081,873.713928 
	C953.982605,860.579102 964.094788,852.041260 977.846313,848.406738 
	C984.518311,846.643372 991.637817,846.310913 998.587769,845.923706 
	C1008.477295,845.372681 1015.181946,839.282532 1015.918274,829.463379 
	C1016.753479,818.326416 1011.028809,809.317749 1001.149353,808.613342 
	C979.186218,807.047485 958.852783,810.803650 944.461365,829.893921 
	C944.250000,830.174316 943.658386,830.168030 943.033997,830.360229 
	C943.033997,829.478088 943.055664,828.816467 943.030762,828.156555 
	C942.586426,816.371948 934.116882,808.010315 922.603271,807.982910 
	C910.965332,807.955139 902.422424,816.168091 902.380920,828.207214 
	C902.229858,872.027771 902.240662,915.849182 902.341064,959.669983 
	C902.362488,969.027710 907.317078,975.812317 915.259216,978.538391 
	C929.526855,983.435608 942.762634,974.317566 942.903870,959.235229 
	C943.092651,939.075806 942.573425,918.899231 943.252563,898.760132 
	C943.527649,890.602661 946.160156,882.524658 948.033081,873.713928 
M561.186157,1064.166138 
	C559.665161,1061.674438 558.144165,1059.182739 556.550598,1056.572021 
	C560.897827,1053.937988 563.202148,1050.777832 562.185303,1045.989624 
	C561.357422,1042.091064 558.725525,1039.673462 555.052185,1039.305664 
	C550.201355,1038.820190 545.265259,1039.186279 540.321655,1039.186279 
	C540.321655,1048.837891 540.321655,1058.027588 540.321655,1067.384399 
	C550.345398,1068.966064 544.229614,1060.498047 547.753479,1056.884888 
	C548.863892,1057.660645 550.513672,1058.382080 551.532227,1059.622192 
	C553.205566,1061.659302 554.094055,1064.479248 556.034973,1066.111084 
	C557.380371,1067.242188 559.937805,1066.931641 561.953735,1067.265259 
	C561.828674,1066.427490 561.703613,1065.589844 561.186157,1064.166138 
M679.810791,1067.769897 
	C688.174622,1064.847534 692.317871,1058.232056 690.809937,1050.207520 
	C689.498474,1043.228638 683.297852,1038.215088 676.201294,1038.395386 
	C668.552856,1038.589966 662.577332,1043.921143 661.545471,1051.450806 
	C660.491089,1059.144531 666.380859,1069.592407 679.810791,1067.769897 
M720.556519,1068.024780 
	C730.765198,1067.358643 735.184692,1061.794556 732.952759,1052.297852 
	C729.211365,1052.297852 725.450684,1052.297852 721.629150,1052.297852 
	C719.423462,1058.555054 725.371765,1055.937378 727.381592,1057.805664 
	C726.971741,1061.204102 724.771851,1062.717773 721.692383,1062.779907 
	C717.721985,1062.860352 714.368958,1061.270386 713.174194,1057.215820 
	C711.895996,1052.877808 711.885620,1048.339600 715.928894,1045.381714 
	C720.437195,1042.083740 724.726868,1043.774536 728.617798,1047.480957 
	C729.899231,1046.567505 731.066528,1045.735474 732.213318,1044.917969 
	C728.689148,1039.123535 722.671936,1037.075073 716.144226,1039.216431 
	C709.687683,1041.334351 705.831421,1047.314209 706.394836,1054.334106 
	C707.012695,1062.031738 711.546509,1066.692505 720.556519,1068.024780 
M920.278320,1067.310547 
	C921.822693,1067.310547 923.367126,1067.310547 925.475281,1067.310547 
	C923.119751,1063.242188 921.239868,1059.995239 919.300476,1056.645630 
	C923.671753,1053.702026 926.495605,1050.020386 924.381104,1045.446411 
	C923.175110,1042.837769 920.007629,1040.066040 917.269348,1039.476440 
	C912.711243,1038.495117 907.788208,1039.208984 902.772522,1039.208984 
	C902.661133,1040.992065 902.497131,1042.462280 902.489685,1043.933350 
	C902.454407,1050.924194 902.341309,1057.919922 902.595886,1064.901489 
	C902.630310,1065.845703 904.607849,1067.451172 905.647217,1067.421143 
	C906.688538,1067.390869 908.344482,1065.822510 908.558594,1064.703857 
	C909.010254,1062.344360 908.696045,1059.838257 908.696045,1057.392212 
	C909.126038,1057.097900 909.556091,1056.803467 909.986084,1056.509155 
	C911.499878,1057.599121 913.289917,1058.453613 914.464783,1059.832397 
	C916.379883,1062.079834 917.893250,1064.669678 920.278320,1067.310547 
M446.226532,1051.857300 
	C444.924713,1043.160400 438.784790,1037.820068 430.671906,1038.328125 
	C422.977020,1038.810181 417.347961,1044.519165 417.000427,1052.193726 
	C416.604004,1060.947998 422.324829,1067.593262 430.649628,1068.048218 
	C439.747406,1068.545654 445.727386,1062.649536 446.226532,1051.857300 
M847.677063,1056.455200 
	C847.677063,1050.727783 847.677063,1045.000366 847.677063,1038.912231 
	C845.330078,1039.087280 843.762329,1039.204224 842.121155,1039.326660 
	C841.947144,1043.177612 841.793518,1046.578247 841.647400,1049.812256 
	C837.371948,1049.812256 833.658997,1049.812256 829.597229,1049.812256 
	C829.597229,1046.093628 829.597229,1042.814331 829.597229,1039.279541 
	C827.533386,1039.279541 825.833130,1039.279541 823.971985,1039.279541 
	C823.971985,1048.819946 823.971985,1058.031250 823.971985,1067.635620 
	C826.075684,1067.532837 827.800110,1067.448608 829.952271,1067.343384 
	C829.952271,1063.240356 829.952271,1059.656860 829.952271,1055.956055 
	C834.105225,1055.956055 837.790894,1055.956055 842.024902,1055.956055 
	C842.024902,1059.947632 842.024902,1063.524536 842.024902,1067.485352 
	C844.169678,1067.378418 845.735229,1067.300415 847.684265,1067.203247 
	C847.684265,1063.671143 847.684265,1060.552124 847.677063,1056.455200 
M750.474182,1058.406250 
	C750.474182,1061.335083 750.474182,1064.263794 750.474182,1067.600708 
	C756.558594,1067.600708 761.870361,1067.747314 767.161377,1067.481689 
	C768.269409,1067.426147 769.301270,1065.851929 770.368164,1064.977539 
	C769.244812,1064.139404 768.183533,1062.702271 766.986145,1062.578247 
	C763.741699,1062.242065 760.439514,1062.463013 757.074829,1062.463013 
	C757.074829,1059.725830 757.074829,1057.841797 757.074829,1055.652222 
	C761.044250,1055.474731 764.648682,1055.313477 768.982300,1055.119751 
	C767.534302,1046.598511 760.212585,1052.746216 756.848206,1049.192383 
	C756.848206,1047.941406 756.848206,1046.208618 756.848206,1043.962646 
	C761.151428,1043.962646 765.242615,1043.962646 769.533081,1043.962646 
	C769.533081,1042.082153 769.533081,1040.716431 769.533081,1039.241699 
	C763.109314,1039.241699 757.035828,1039.241699 750.474854,1039.241699 
	C750.474854,1045.494995 750.474854,1051.462402 750.474182,1058.406250 
M473.657990,1038.320068 
	C472.675140,1038.483032 471.676788,1038.582886 470.712097,1038.819702 
	C466.401825,1039.878296 463.500580,1042.386597 463.339844,1047.023804 
	C463.176758,1051.729004 466.521637,1053.610229 470.401337,1054.825439 
	C471.510376,1055.172729 472.819794,1055.171509 473.736481,1055.781860 
	C475.705078,1057.092651 479.287750,1059.324707 479.027130,1060.076904 
	C477.676636,1063.974609 474.134583,1063.217773 471.079895,1062.211060 
	C469.751495,1061.773438 468.706879,1060.497559 467.503113,1059.645020 
	C467.123840,1059.376343 466.646210,1059.246460 466.049927,1058.979980 
	C464.889038,1059.791016 463.726685,1060.603027 462.665222,1061.344604 
	C464.938660,1068.584717 477.382111,1070.078125 482.144318,1065.752808 
	C484.082977,1063.991943 485.681854,1060.594727 485.470764,1058.108887 
	C485.285339,1055.924805 482.691132,1053.458740 480.545227,1052.065308 
	C478.422485,1050.686890 475.427002,1050.731567 473.014862,1049.688354 
	C471.701477,1049.120361 470.804657,1047.589233 469.719971,1046.492432 
	C471.090210,1045.550781 472.515991,1043.771362 473.818085,1043.857666 
	C475.929565,1043.997559 477.960541,1045.359497 480.024048,1046.208862 
	C480.462952,1046.389526 480.895630,1046.585327 481.501038,1046.847900 
	C482.634521,1046.000610 483.772675,1045.149902 485.013824,1044.222290 
	C482.569244,1039.820923 478.789124,1038.570923 473.657990,1038.320068 
M503.128632,1042.734375 
	C503.128632,1050.838867 503.128632,1058.943359 503.128632,1067.229980 
	C509.783020,1067.229980 516.007935,1067.229980 522.159729,1067.229980 
	C523.359070,1063.835083 522.772888,1062.125000 519.054260,1062.328247 
	C515.831604,1062.504395 512.591614,1062.364746 509.428711,1062.364746 
	C509.428711,1059.598999 509.428711,1057.691772 509.428711,1055.328003 
	C513.547119,1055.328003 517.292053,1055.328003 521.735107,1055.328003 
	C520.216919,1046.510864 512.598389,1052.771118 509.439423,1049.280151 
	C509.439423,1047.745728 509.439423,1046.030029 509.439423,1043.924683 
	C512.619873,1043.924683 515.436829,1043.781860 518.233276,1043.959961 
	C521.885254,1044.192871 523.735657,1043.254272 521.921875,1038.948853 
	C516.644470,1038.948853 511.340271,1038.801270 506.058258,1039.077271 
	C505.037933,1039.130615 504.104187,1040.841187 503.128632,1042.734375 
M878.364990,1062.337036 
	C876.296692,1062.337036 874.228394,1062.337036 872.280640,1062.337036 
	C872.280640,1059.548828 872.280640,1057.659058 872.280640,1055.395752 
	C876.326416,1055.395752 879.945129,1055.395752 883.730591,1055.395752 
	C883.730591,1053.611816 883.730591,1052.206665 883.730591,1050.199097 
	C879.714783,1050.199097 875.984863,1050.199097 872.187500,1050.199097 
	C872.187500,1047.852661 872.187500,1046.119629 872.187500,1043.811279 
	C876.571838,1043.811279 880.645996,1043.811279 884.768250,1043.811279 
	C884.768250,1041.967163 884.768250,1040.708130 884.768250,1039.318848 
	C878.459473,1039.318848 872.410706,1039.318848 866.166870,1039.318848 
	C866.166870,1048.787354 866.166870,1057.880249 866.166870,1067.255127 
	C872.616638,1067.255127 878.839966,1067.255127 885.069458,1067.255127 
	C886.788208,1060.730835 882.060181,1062.775513 878.364990,1062.337036 
M360.736847,1059.632568 
	C356.233307,1063.369019 352.060211,1063.591919 348.790161,1060.270752 
	C345.537201,1056.966919 345.416290,1049.927490 348.552460,1046.441040 
	C352.033356,1042.571777 356.305084,1042.984375 362.497559,1047.885010 
	C363.691284,1047.159668 364.937164,1046.402588 366.154694,1045.662720 
	C363.586304,1039.827148 358.330872,1037.529785 351.166229,1038.926147 
	C344.454926,1040.234131 340.018188,1046.039185 340.024933,1053.503906 
	C340.031433,1060.699219 344.222137,1066.073975 351.049225,1067.643188 
	C357.627594,1069.155273 363.659760,1066.408203 366.569031,1060.024780 
	C364.652161,1059.674561 362.892914,1059.353149 360.736847,1059.632568 
M785.673157,1043.068970 
	C788.174194,1043.568237 790.675293,1044.067505 793.663940,1044.664185 
	C793.663940,1052.171875 793.663940,1059.613892 793.663940,1067.518066 
	C795.921936,1067.405273 797.634644,1067.319824 799.845764,1067.209351 
	C799.845764,1059.269043 799.845764,1051.847412 799.845764,1044.203247 
	C802.759338,1044.021362 805.166748,1043.871094 807.813599,1043.705933 
	C807.730469,1041.965454 807.670654,1040.712769 807.589233,1039.007568 
	C800.826355,1039.007568 794.359741,1038.886719 787.909058,1039.152222 
	C787.050354,1039.187378 786.272400,1041.182495 785.673157,1043.068970 
M383.467255,1064.897949 
	C384.528839,1065.766235 385.542358,1067.302979 386.660553,1067.383301 
	C390.791626,1067.680176 394.962311,1067.367310 399.108368,1067.531006 
	C402.757202,1067.675049 403.472137,1066.102539 402.076752,1062.364258 
	C398.200317,1062.364258 394.136780,1062.364258 389.564819,1062.364258 
	C389.564819,1054.307495 389.564819,1046.892334 389.564819,1039.319092 
	C387.323029,1039.319092 385.616364,1039.319092 383.443146,1039.319092 
	C383.443146,1047.758301 383.443146,1055.880859 383.467255,1064.897949 
M632.582703,1038.947388 
	C630.466309,1038.947388 628.349854,1038.947388 625.845520,1038.947388 
	C625.955200,1040.892822 626.032776,1042.268921 626.120239,1043.819580 
	C628.887451,1043.986816 631.276489,1044.131104 634.044250,1044.298340 
	C634.044250,1052.251709 634.044250,1059.654297 634.044250,1067.496216 
	C636.205383,1067.377930 637.909790,1067.284668 639.991272,1067.170776 
	C639.991272,1059.219727 639.991272,1051.808838 639.991272,1044.143188 
	C642.794922,1044.006592 645.208252,1043.888916 647.745239,1043.765259 
	C647.745239,1042.089844 647.745239,1040.716797 647.745239,1038.948853 
	C642.806580,1038.948853 638.184387,1038.948853 632.582703,1038.947388 
M943.460083,1067.358643 
	C945.212830,1066.748901 947.087524,1066.331787 948.614868,1065.365723 
	C948.919067,1065.173340 948.262146,1062.186523 947.392822,1061.726196 
	C946.227112,1061.108887 943.439148,1061.199341 943.099487,1061.871338 
	C942.405884,1063.243286 942.882446,1065.206787 943.460083,1067.358643 
M580.988220,1061.214722 
	C580.594055,1062.901001 579.721252,1064.681763 580.026550,1066.229980 
	C580.160278,1066.908081 582.846130,1067.674927 584.100586,1067.349731 
	C585.079041,1067.096313 586.457153,1064.407227 586.246460,1064.193726 
	C584.963989,1062.894653 583.277344,1061.994629 580.988220,1061.214722 
z"/>
<path fill="#8649EA" opacity="1.000000" stroke="none" 
	d="
M875.124390,651.507690 
	C874.615601,651.976074 874.106750,652.444458 872.950195,652.964111 
	C871.202820,653.983215 870.103271,654.950989 869.003784,655.918823 
	C868.577454,656.270325 868.151123,656.621826 867.084473,656.871948 
	C862.069824,654.745789 860.540710,656.490173 861.005371,660.875854 
	C859.600220,661.656677 858.195068,662.437500 856.379150,662.906006 
	C855.066467,662.030212 854.226990,661.302002 853.251648,660.932434 
	C849.440796,659.488586 848.100525,657.415771 850.045898,653.282959 
	C852.565125,647.930908 857.196533,642.941284 854.068970,636.152161 
	C853.720398,635.395508 854.372986,634.224609 854.394775,633.242126 
	C854.484375,629.213318 854.536865,625.183105 854.550049,621.153320 
	C854.562195,617.453735 853.559082,613.430542 854.687256,610.124695 
	C856.733704,604.128235 855.823303,597.050781 860.906311,592.116943 
	C861.239868,591.793213 861.455017,591.247559 861.531616,590.773865 
	C862.728577,583.366333 863.921875,575.957947 865.049438,568.539673 
	C865.409485,566.170776 865.306885,563.704468 865.888184,561.401978 
	C867.007446,556.968567 868.854065,552.689941 869.653625,548.214050 
	C870.269775,544.764709 870.133606,541.323547 873.879700,539.478455 
	C874.366882,539.238464 874.640564,538.416443 874.861389,537.808899 
	C876.107178,534.381165 877.306580,530.936523 878.759583,526.824646 
	C878.552185,526.774475 877.196350,526.021545 876.015808,526.235474 
	C871.245789,527.099976 865.616516,524.958496 863.082275,520.717163 
	C863.656738,519.932312 864.142212,519.403381 865.027710,518.880981 
	C869.644653,515.869324 870.363342,509.868988 866.777832,506.530426 
	C866.696228,464.154266 866.688965,422.241852 866.682129,380.329437 
	C866.679810,365.693359 866.683411,351.057281 866.674500,336.421204 
	C866.671143,330.883362 864.542908,325.952057 859.803772,323.456177 
	C855.292664,321.080322 849.991577,320.732880 844.919189,324.096252 
	C841.112488,323.765106 839.140503,320.864929 840.591553,318.743195 
	C842.487976,315.970306 842.854858,313.280273 843.726685,310.319489 
	C845.755798,303.428101 851.892822,296.888214 843.333313,290.264862 
	C842.954407,289.971680 843.146912,288.994507 842.984131,288.358765 
	C841.899963,284.124054 841.754822,279.238007 839.435242,275.839478 
	C836.821411,272.009918 837.434326,268.917816 838.334106,265.210388 
	C838.622131,264.023499 837.925293,262.621277 838.106995,261.380249 
	C838.603821,257.987122 836.952698,253.377090 842.818359,252.737228 
	C843.452332,252.668076 844.391602,250.828232 844.343262,249.851624 
	C844.112671,245.195999 843.554016,240.557541 843.206116,235.905945 
	C843.148376,235.135025 843.649109,234.339066 843.734436,233.537933 
	C844.161072,229.530090 844.746704,225.518280 844.777039,221.504059 
	C844.784485,220.521484 842.875610,219.560501 841.917969,218.524719 
	C840.902954,217.426773 839.054199,216.166611 839.150757,215.123734 
	C839.827942,207.811691 837.727600,200.967072 836.175598,194.015793 
	C835.425476,190.656555 834.744263,187.281937 834.031860,183.914276 
	C851.593079,186.507584 866.820251,194.306793 880.428833,205.323608 
	C897.660034,219.273026 909.413940,237.053528 915.840088,258.777527 
	C916.066406,260.235260 916.521057,261.117188 916.975647,261.999084 
	C916.975647,261.999084 917.140137,262.464508 916.868530,262.934021 
	C916.667908,264.499176 916.633057,265.614105 916.828369,266.687134 
	C917.646667,271.183319 919.111145,275.646271 919.272827,280.159546 
	C919.585632,288.895020 919.087341,297.656219 919.084534,306.406799 
	C919.056824,392.992340 919.057739,479.577911 919.088928,566.163452 
	C919.089539,567.756836 919.561340,569.350098 919.813354,570.943420 
	C919.604065,572.715942 919.394836,574.488403 918.875366,576.764282 
	C918.645813,577.827515 918.726440,578.387390 918.807007,578.947205 
	C918.766724,579.399841 918.726440,579.852539 918.276001,580.738464 
	C917.826965,582.422791 917.788025,583.673767 917.749084,584.924805 
	C917.636353,585.400879 917.523621,585.876892 916.951660,586.782959 
	C916.295349,588.799805 916.098328,590.386658 915.901245,591.973450 
	C915.624695,592.841553 915.348145,593.709595 914.648438,594.934692 
	C914.044434,595.536194 913.987976,595.806824 914.055908,596.103577 
	C914.063599,596.570740 914.071228,597.037903 913.666748,597.883911 
	C913.057922,598.495483 912.984497,598.762268 913.034241,599.063110 
	C909.057861,607.322571 905.379456,615.745483 900.977661,623.771667 
	C898.821960,627.702393 895.322021,630.895996 892.014526,634.836426 
	C891.456177,635.579224 891.313843,635.908752 891.171387,636.238281 
	C891.171387,636.238281 891.157349,636.110352 890.922668,636.209656 
	C890.448669,636.838928 890.209351,637.368835 889.970032,637.898682 
	C888.167175,639.834290 886.364380,641.769897 883.847412,643.850952 
	C876.741882,644.109192 875.939819,644.865356 876.391479,650.352600 
	C876.391479,650.352600 876.246155,650.332031 875.948059,650.354065 
	C875.474792,650.753296 875.299561,651.130432 875.124390,651.507690 
z"/>
<path fill="#1B2742" opacity="1.000000" stroke="none" 
	d="
M663.286987,813.707886 
	C694.078491,829.979248 710.278137,855.569519 711.991943,889.642883 
	C713.717834,923.955811 700.985107,952.014160 671.498535,970.868225 
	C641.094238,990.309265 597.058655,988.535889 568.031738,967.537231 
	C538.758850,946.360596 525.571228,909.289917 534.245239,872.562500 
	C544.103394,830.821045 581.559753,802.896851 625.340271,804.634277 
	C638.460571,805.154968 651.094727,807.695068 663.286987,813.707886 
M620.620361,844.985779 
	C616.065125,845.866638 611.328918,846.221924 606.985046,847.716858 
	C584.831238,855.341125 572.285767,878.816772 576.498413,904.209412 
	C580.139587,926.158142 595.782349,941.970215 615.955688,944.094055 
	C643.902039,947.036255 664.979675,929.742737 668.610596,900.892334 
	C672.398987,870.791077 651.177551,845.575623 620.620361,844.985779 
z"/>
<path fill="#1B2742" opacity="1.000000" stroke="none" 
	d="
M257.142822,878.123047 
	C263.478943,841.285095 292.857544,810.989380 333.416260,805.531067 
	C358.796112,802.115417 382.995148,805.494873 404.437469,820.608826 
	C409.248199,823.999695 413.789185,828.262390 417.222351,833.013794 
	C423.804718,842.123657 421.706818,853.866211 413.178101,860.710999 
	C405.058350,867.227539 394.082458,866.361633 386.049591,858.570862 
	C366.692108,839.796814 333.574585,839.742126 314.464813,858.452698 
	C295.687134,876.838074 294.899536,909.822876 312.772064,929.339661 
	C331.502136,949.792786 367.935425,949.679199 386.651886,929.041138 
	C392.405975,922.696289 399.380981,919.769287 407.704681,922.033386 
	C415.711456,924.211182 420.861450,929.756409 422.553345,937.972717 
	C423.975861,944.880737 421.251617,950.785706 416.903564,955.913818 
	C404.146667,970.959412 387.394196,979.129883 368.360596,982.390442 
	C338.038025,987.584900 309.694580,982.741943 285.939301,961.943848 
	C260.671478,939.821594 252.196381,911.370300 257.142822,878.123047 
z"/>
<path fill="#1B2742" opacity="1.000000" stroke="none" 
	d="
M803.949219,911.968689 
	C792.796753,908.930237 781.828125,906.621399 771.373596,902.877380 
	C752.664246,896.177246 739.996948,883.833679 739.365906,862.695251 
	C738.707275,840.631165 748.803772,824.068542 768.518372,814.909546 
	C797.902466,801.258240 827.354126,803.147827 855.873047,818.412659 
	C862.100037,821.745667 866.884399,826.569458 867.964417,834.012390 
	C869.122803,841.995789 866.546631,848.578369 859.760071,853.027832 
	C852.783875,857.601624 845.413086,857.320374 838.614868,852.777222 
	C827.511658,845.357239 815.414978,842.006042 802.195251,843.129211 
	C798.120667,843.475464 793.950256,844.517090 790.170898,846.079895 
	C784.700745,848.341980 781.366272,852.703613 781.474304,858.891907 
	C781.578247,864.849609 785.295959,868.552979 790.532471,870.189941 
	C798.929626,872.814697 807.558167,874.688477 816.031616,877.082458 
	C825.783813,879.837830 835.746704,882.124573 845.131775,885.842468 
	C862.804565,892.843628 873.796875,905.634460 874.863586,925.277283 
	C875.990540,946.028076 868.126709,962.437073 849.649170,972.732117 
	C830.762024,983.255371 810.246887,984.257996 789.398804,981.372559 
	C773.228638,979.134583 757.789001,974.437073 744.545898,964.434998 
	C732.357056,955.229065 734.940552,936.818054 749.147400,931.193970 
	C755.973633,928.491577 762.481140,929.555786 768.517822,933.941956 
	C782.308838,943.961975 797.728516,948.406555 814.680359,946.087463 
	C819.149780,945.476013 823.854675,943.747375 827.601379,941.254333 
	C836.746460,935.169189 836.132507,923.306274 826.222229,918.742676 
	C819.363647,915.584351 811.679810,914.218445 803.949219,911.968689 
z"/>
<path fill="#7B4DEB" opacity="1.000000" stroke="none" 
	d="
M833.809814,183.734009 
	C834.744263,187.281937 835.425476,190.656555 836.175598,194.015793 
	C837.727600,200.967072 839.827942,207.811691 839.150757,215.123734 
	C839.054199,216.166611 840.902954,217.426773 841.917969,218.524719 
	C842.875610,219.560501 844.784485,220.521484 844.777039,221.504059 
	C844.746704,225.518280 844.161072,229.530090 843.734436,233.537933 
	C843.649109,234.339066 843.148376,235.135025 843.206116,235.905945 
	C843.554016,240.557541 844.112671,245.195999 844.343262,249.851624 
	C844.391602,250.828232 843.452332,252.668076 842.818359,252.737228 
	C836.952698,253.377090 838.603821,257.987122 838.106995,261.380249 
	C837.925293,262.621277 838.622131,264.023499 838.334106,265.210388 
	C837.434326,268.917816 836.821411,272.009918 839.435242,275.839478 
	C841.754822,279.238007 841.899963,284.124054 842.984131,288.358765 
	C843.146912,288.994507 842.954407,289.971680 843.333313,290.264862 
	C851.892822,296.888214 845.755798,303.428101 843.726685,310.319489 
	C842.854858,313.280273 842.487976,315.970306 840.591553,318.743195 
	C839.140503,320.864929 841.112488,323.765106 844.719238,324.377716 
	C821.507568,342.121307 798.101440,359.544128 773.869812,377.581451 
	C773.869812,367.043488 773.867065,357.616882 773.870361,348.190247 
	C773.880432,319.717316 762.963379,297.263489 737.797852,282.420532 
	C737.525085,282.210449 737.237549,282.244080 736.625854,282.236816 
	C735.534485,281.793976 734.767212,281.391998 733.953125,280.600525 
	C733.906189,277.191528 733.906189,274.172058 733.906189,270.609528 
	C740.552551,273.393646 741.454041,273.417511 741.835449,270.370453 
	C742.548401,264.674500 742.593018,258.892426 742.822998,253.142471 
	C742.845215,252.587128 742.247742,251.985687 741.886719,251.439514 
	C737.028564,244.090500 737.664246,239.260529 744.209900,233.876465 
	C746.972717,231.603943 748.401367,225.023941 746.733215,222.254868 
	C744.509583,218.563736 745.083313,212.505539 748.802734,211.118546 
	C752.859314,209.605881 753.205688,206.994232 753.236206,203.558701 
	C754.810913,203.163788 756.181458,202.820099 757.615295,202.460510 
	C756.920837,198.725708 757.265198,194.610550 751.823608,194.623062 
	C751.452209,194.623917 750.784058,192.613724 750.776367,191.535049 
	C750.766724,190.183716 751.297424,188.828506 751.630920,187.311096 
	C747.283691,186.455200 741.926331,188.460617 740.999634,182.055634 
	C768.255493,182.062042 795.511292,182.055222 822.767090,182.104645 
	C824.578003,182.107941 826.388123,182.538803 828.603088,183.214447 
	C829.357239,184.310486 829.706909,184.962860 830.056580,185.615234 
	C830.679077,184.876129 831.301514,184.137024 831.923950,183.397888 
	C832.478577,183.449829 833.033142,183.501785 833.809814,183.734009 
z"/>
<path fill="#615AEB" opacity="1.000000" stroke="none" 
	d="
M539.999451,674.884705 
	C527.622681,674.527100 515.404541,675.667236 503.829132,680.241943 
	C499.696411,681.875244 495.636505,684.397522 492.377808,687.415100 
	C478.603516,700.170105 465.104034,713.223572 451.581635,726.248413 
	C441.118866,736.326294 428.528442,733.117004 424.342041,719.160034 
	C420.813141,707.394897 417.379120,695.601318 414.309021,683.418701 
	C417.865906,683.259766 420.545868,682.944946 421.996399,679.361206 
	C422.494110,678.131653 424.434448,677.454712 425.763123,676.598999 
	C428.879211,674.592102 432.778931,673.230835 434.959808,670.492065 
	C437.500092,667.302002 439.983032,666.683777 443.532227,667.282043 
	C445.248840,667.571411 448.281830,667.999512 448.606018,667.334656 
	C451.034180,662.354492 454.938568,659.315857 459.832977,657.165588 
	C460.427429,656.904480 460.525909,655.668030 461.045105,655.041931 
	C461.649658,654.312988 462.376770,653.593628 463.202087,653.154785 
	C468.406158,650.387756 473.676971,647.745300 478.858002,644.936768 
	C479.646790,644.509094 480.129517,643.462891 480.675903,642.650391 
	C485.639771,635.269043 494.501404,632.967102 500.753082,627.260986 
	C501.057495,626.983154 501.769958,627.205688 502.192749,626.995117 
	C504.496735,625.847473 507.293274,625.126587 508.950897,623.352844 
	C513.241455,618.761841 517.025085,613.697144 521.596558,608.105408 
	C519.975403,606.644409 517.601379,604.816895 515.676758,602.599304 
	C515.014832,601.836548 515.081238,599.138123 515.489014,598.971191 
	C517.481812,598.155640 519.692139,597.588867 521.844910,597.517639 
	C524.618347,597.426025 527.724915,598.463684 528.452026,594.049072 
	C556.277039,594.032471 583.632019,594.043152 610.982178,594.419800 
	C610.771790,595.396973 610.726196,596.401245 610.336304,596.559937 
	C605.024109,598.723083 605.723083,601.939270 608.170288,606.011536 
	C608.802429,607.063416 608.110107,609.346924 607.354797,610.686035 
	C606.417358,612.348083 604.621887,613.500427 603.478943,615.077271 
	C600.379883,619.352783 598.025391,624.360352 594.282776,627.932617 
	C588.491150,633.460571 581.808533,638.058777 575.472046,643.010742 
	C570.597778,646.819946 565.384827,650.255798 560.880432,654.455994 
	C558.105713,657.043335 554.498596,660.805237 554.582886,663.950806 
	C554.746521,670.058350 551.304932,669.301453 547.625305,670.233643 
	C544.849731,670.936646 540.571960,670.202026 539.999451,674.884705 
z"/>
<path fill="#7A4FEA" opacity="1.000000" stroke="none" 
	d="
M771.999329,674.893494 
	C750.641418,674.947815 729.283569,675.002075 707.410950,674.608398 
	C704.203613,668.169678 703.648621,661.926025 704.243774,655.079407 
	C706.008606,655.427795 707.253296,655.747009 708.518066,655.909912 
	C712.972961,656.483765 713.954407,655.084045 712.538635,650.733765 
	C712.109436,649.414795 711.971619,647.660217 712.487671,646.437439 
	C714.141846,642.517639 715.994812,638.654846 718.129333,634.978088 
	C718.977722,633.516541 720.584961,632.157837 722.158203,631.517700 
	C726.998413,629.548157 729.332947,625.960022 730.186340,621.003967 
	C730.905640,616.826538 732.312134,613.296143 736.781799,611.243286 
	C738.459473,610.472717 739.421143,607.242432 739.911438,604.962036 
	C741.196960,598.982361 743.711853,593.583923 749.394043,591.243713 
	C753.827942,589.417603 755.869812,586.407471 756.155151,582.396118 
	C756.393372,579.046021 758.093140,577.274536 760.182922,575.240051 
	C762.883057,572.611511 765.763672,569.984558 767.717407,566.830872 
	C769.294312,564.285400 769.719055,560.985229 770.425293,557.966064 
	C770.639832,557.048706 770.090332,555.952637 769.877930,554.514404 
	C769.671021,553.557434 769.477051,553.024475 769.388428,552.486450 
	C769.493896,552.481384 769.532288,552.688965 769.834717,552.692200 
	C770.055603,552.121399 769.973938,551.547363 769.901123,550.578247 
	C771.233154,539.864441 773.257996,529.576416 773.712524,519.219482 
	C774.367432,504.298920 773.873901,489.328308 773.894165,474.379089 
	C773.896057,472.979950 774.067749,471.581024 774.199585,469.594788 
	C775.572083,470.446014 776.411011,470.885925 777.162109,471.444061 
	C791.024780,481.746155 804.884094,492.052917 818.714844,502.397797 
	C819.609680,503.067108 820.267822,504.052948 820.812988,505.215393 
	C820.361572,509.621124 819.067627,514.006348 820.125244,517.722290 
	C822.377502,525.635132 819.618835,532.906738 817.924622,540.044189 
	C816.428162,546.348633 811.282532,551.722168 812.879700,559.014648 
	C813.063110,559.852295 812.630432,561.129761 812.028320,561.785583 
	C807.709595,566.489502 806.276367,572.286438 805.348938,578.347046 
	C804.306091,585.161560 802.684082,591.921387 802.168457,598.769409 
	C801.870667,602.724548 801.040955,605.367737 797.240967,606.979614 
	C794.827942,608.003174 792.735046,609.887207 794.865295,612.789307 
	C797.112976,615.851440 795.153015,616.829224 793.057129,618.636230 
	C790.709473,620.660217 787.556641,623.548340 787.534790,626.084290 
	C787.493835,630.845215 789.608093,635.595764 790.468323,640.414429 
	C790.673828,641.565491 789.479309,642.970764 788.914490,644.252869 
	C788.734558,644.661133 788.508728,645.049133 788.342651,645.371399 
	C789.267517,646.710693 790.089478,647.900879 790.693848,648.776123 
	C789.315186,651.027222 787.195618,652.917725 787.208191,654.794006 
	C787.234436,658.716919 786.343323,661.468262 782.393738,662.484558 
	C783.020447,664.532898 783.568115,666.322998 784.174255,668.304138 
	C779.274170,669.765991 772.983948,667.692383 771.999329,674.893494 
z"/>
<path fill="#8B47F6" opacity="1.000000" stroke="none" 
	d="
M947.876465,874.062256 
	C946.160156,882.524658 943.527649,890.602661 943.252563,898.760132 
	C942.573425,918.899231 943.092651,939.075806 942.903870,959.235229 
	C942.762634,974.317566 929.526855,983.435608 915.259216,978.538391 
	C907.317078,975.812317 902.362488,969.027710 902.341064,959.669983 
	C902.240662,915.849182 902.229858,872.027771 902.380920,828.207214 
	C902.422424,816.168091 910.965332,807.955139 922.603271,807.982910 
	C934.116882,808.010315 942.586426,816.371948 943.030762,828.156555 
	C943.055664,828.816467 943.033997,829.478088 943.033997,830.360229 
	C943.658386,830.168030 944.250000,830.174316 944.461365,829.893921 
	C958.852783,810.803650 979.186218,807.047485 1001.149353,808.613342 
	C1011.028809,809.317749 1016.753479,818.326416 1015.918274,829.463379 
	C1015.181946,839.282532 1008.477295,845.372681 998.587769,845.923706 
	C991.637817,846.310913 984.518311,846.643372 977.846313,848.406738 
	C964.094788,852.041260 953.982605,860.579102 947.876465,874.062256 
z"/>
<path fill="#376DEA" opacity="1.000000" stroke="none" 
	d="
M333.010437,395.999634 
	C332.939178,370.202911 332.756500,344.405884 332.840546,318.609711 
	C332.887115,304.309387 332.087952,289.842499 333.922180,275.743683 
	C338.716492,238.891708 358.459015,211.802109 391.630188,194.025055 
	C400.278351,200.064560 399.897522,208.215759 398.226501,216.668732 
	C397.528046,220.201920 396.485382,223.303528 399.564728,226.798553 
	C401.454773,228.943741 402.049103,233.027664 401.767853,236.107971 
	C401.308716,241.137115 399.583984,246.042252 398.567657,251.035217 
	C398.326935,252.217728 398.428802,253.726837 398.979218,254.764069 
	C400.468414,257.570251 400.007996,259.649597 397.737701,261.860260 
	C394.838043,264.683777 393.302551,267.929840 395.822998,272.029816 
	C397.202301,274.273407 398.322174,276.772400 399.016937,279.304962 
	C399.435089,280.829193 399.357391,283.731079 398.559998,284.130005 
	C395.288422,285.766754 396.049530,288.453278 396.010254,290.986023 
	C395.864380,300.394867 397.270569,309.983307 392.004578,318.706451 
	C390.317688,321.500763 389.132385,324.624207 387.933563,327.681732 
	C384.695831,335.939606 382.793854,344.639648 374.854401,350.605621 
	C371.717590,352.962708 368.813843,357.020416 368.593567,362.450928 
	C368.420410,366.720032 367.181183,372.102264 361.507416,373.827606 
	C360.938812,374.000519 360.275085,374.566864 360.066711,375.108734 
	C357.994263,380.498627 352.477692,381.149872 348.409271,383.823181 
	C345.490570,385.741058 342.980713,388.273499 340.235870,390.465912 
	C337.865967,392.358795 335.421783,394.158630 333.010437,395.999634 
z"/>
<path fill="#814CEA" opacity="1.000000" stroke="none" 
	d="
M772.463135,674.967163 
	C772.983948,667.692383 779.274170,669.765991 784.174255,668.304138 
	C783.568115,666.322998 783.020447,664.532898 782.393738,662.484558 
	C786.343323,661.468262 787.234436,658.716919 787.208191,654.794006 
	C787.195618,652.917725 789.315186,651.027222 790.693848,648.776123 
	C790.089478,647.900879 789.267517,646.710693 788.342651,645.371399 
	C788.508728,645.049133 788.734558,644.661133 788.914490,644.252869 
	C789.479309,642.970764 790.673828,641.565491 790.468323,640.414429 
	C789.608093,635.595764 787.493835,630.845215 787.534790,626.084290 
	C787.556641,623.548340 790.709473,620.660217 793.057129,618.636230 
	C795.153015,616.829224 797.112976,615.851440 794.865295,612.789307 
	C792.735046,609.887207 794.827942,608.003174 797.240967,606.979614 
	C801.040955,605.367737 801.870667,602.724548 802.168457,598.769409 
	C802.684082,591.921387 804.306091,585.161560 805.348938,578.347046 
	C806.276367,572.286438 807.709595,566.489502 812.028320,561.785583 
	C812.630432,561.129761 813.063110,559.852295 812.879700,559.014648 
	C811.282532,551.722168 816.428162,546.348633 817.924622,540.044189 
	C819.618835,532.906738 822.377502,525.635132 820.125244,517.722290 
	C819.067627,514.006348 820.361572,509.621124 821.127747,505.363922 
	C828.933167,510.360352 836.182373,515.558105 843.473267,520.696594 
	C851.032227,526.024048 855.205994,526.056213 862.993225,520.973022 
	C865.616516,524.958496 871.245789,527.099976 876.015808,526.235474 
	C877.196350,526.021545 878.552185,526.774475 878.759583,526.824646 
	C877.306580,530.936523 876.107178,534.381165 874.861389,537.808899 
	C874.640564,538.416443 874.366882,539.238464 873.879700,539.478455 
	C870.133606,541.323547 870.269775,544.764709 869.653625,548.214050 
	C868.854065,552.689941 867.007446,556.968567 865.888184,561.401978 
	C865.306885,563.704468 865.409485,566.170776 865.049438,568.539673 
	C863.921875,575.957947 862.728577,583.366333 861.531616,590.773865 
	C861.455017,591.247559 861.239868,591.793213 860.906311,592.116943 
	C855.823303,597.050781 856.733704,604.128235 854.687256,610.124695 
	C853.559082,613.430542 854.562195,617.453735 854.550049,621.153320 
	C854.536865,625.183105 854.484375,629.213318 854.394775,633.242126 
	C854.372986,634.224609 853.720398,635.395508 854.068970,636.152161 
	C857.196533,642.941284 852.565125,647.930908 850.045898,653.282959 
	C848.100525,657.415771 849.440796,659.488586 853.251648,660.932434 
	C854.226990,661.302002 855.066467,662.030212 856.040039,662.981995 
	C841.763550,670.905273 826.431152,674.720154 810.282288,675.018616 
	C797.834595,675.248779 785.379028,675.049377 772.463135,674.967163 
z"/>
<path fill="#5762EB" opacity="1.000000" stroke="none" 
	d="
M527.981934,594.076477 
	C527.724915,598.463684 524.618347,597.426025 521.844910,597.517639 
	C519.692139,597.588867 517.481812,598.155640 515.489014,598.971191 
	C515.081238,599.138123 515.014832,601.836548 515.676758,602.599304 
	C517.601379,604.816895 519.975403,606.644409 521.596558,608.105408 
	C517.025085,613.697144 513.241455,618.761841 508.950897,623.352844 
	C507.293274,625.126587 504.496735,625.847473 502.192749,626.995117 
	C501.769958,627.205688 501.057495,626.983154 500.753082,627.260986 
	C494.501404,632.967102 485.639771,635.269043 480.675903,642.650391 
	C480.129517,643.462891 479.646790,644.509094 478.858002,644.936768 
	C473.676971,647.745300 468.406158,650.387756 463.202087,653.154785 
	C462.376770,653.593628 461.649658,654.312988 461.045105,655.041931 
	C460.525909,655.668030 460.427429,656.904480 459.832977,657.165588 
	C454.938568,659.315857 451.034180,662.354492 448.606018,667.334656 
	C448.281830,667.999512 445.248840,667.571411 443.532227,667.282043 
	C439.983032,666.683777 437.500092,667.302002 434.959808,670.492065 
	C432.778931,673.230835 428.879211,674.592102 425.763123,676.598999 
	C424.434448,677.454712 422.494110,678.131653 421.996399,679.361206 
	C420.545868,682.944946 417.865906,683.259766 414.289185,683.027466 
	C412.534637,678.953186 411.280273,674.842224 409.857758,670.790405 
	C408.189362,666.038269 405.210327,662.685730 400.381622,660.549316 
	C384.521271,653.531677 370.809601,643.476624 359.489716,630.269104 
	C358.322998,628.907837 357.337463,627.391235 356.130524,625.310913 
	C356.637512,623.974243 357.216827,622.743469 357.936310,622.655212 
	C364.401276,621.861938 364.699890,614.377808 369.776733,611.947998 
	C372.215637,610.780701 374.029419,608.312805 376.137054,606.445984 
	C378.030182,604.769043 379.937988,603.108704 382.663757,600.718018 
	C385.021179,601.792969 386.848541,600.330017 387.121582,596.104980 
	C387.187927,595.078247 388.301666,593.928284 389.219269,593.189697 
	C390.821472,591.900085 392.645172,590.885742 393.530640,590.307800 
	C395.182159,592.079163 396.901489,595.360413 398.509888,595.306885 
	C400.843109,595.229309 404.768921,594.173035 403.603699,589.518921 
	C402.234467,589.189209 400.839325,588.853271 399.525116,588.536865 
	C398.803497,582.084229 400.981415,580.745972 413.531128,579.658447 
	C414.536926,581.104431 415.533447,582.537109 416.494171,583.918213 
	C418.649780,582.774292 420.352844,581.870483 422.401367,581.011963 
	C437.133850,590.826843 452.992523,594.983093 470.362305,594.099121 
	C478.833252,593.668091 487.344818,594.036316 496.244202,594.117798 
	C499.684540,594.406189 502.718719,594.619385 506.220581,594.881104 
	C513.786133,594.645264 520.884033,594.360840 527.981934,594.076477 
z"/>
<path fill="#1A2642" opacity="1.000000" stroke="none" 
	d="
M499.055511,963.019043 
	C499.089813,963.190247 499.124115,963.361511 498.697571,963.829224 
	C497.782410,964.761108 497.116180,965.333374 496.905518,966.041260 
	C493.546509,977.327393 476.841370,982.268372 466.857941,974.542297 
	C465.067871,973.157043 462.972198,972.166809 461.017578,970.994202 
	C459.596161,966.860657 456.954254,962.732361 456.936707,958.592834 
	C456.680481,898.191589 456.753418,837.788879 456.805786,777.386475 
	C456.815063,766.705383 461.693695,759.612976 470.697815,756.644104 
	C480.671082,753.355774 489.494049,756.001465 495.815918,764.634583 
	C496.052643,767.445435 496.804504,769.853882 496.937653,772.296082 
	C497.163666,776.441284 496.999512,780.607666 496.999512,784.765198 
	C496.999359,841.972534 496.976196,899.179932 497.085876,956.387024 
	C497.090118,958.598999 498.370026,960.808411 499.055511,963.019043 
z"/>
<path fill="#3F69EA" opacity="1.000000" stroke="none" 
	d="
M332.922272,396.461426 
	C335.421783,394.158630 337.865967,392.358795 340.235870,390.465912 
	C342.980713,388.273499 345.490570,385.741058 348.409271,383.823181 
	C352.477692,381.149872 357.994263,380.498627 360.066711,375.108734 
	C360.275085,374.566864 360.938812,374.000519 361.507416,373.827606 
	C367.181183,372.102264 368.420410,366.720032 368.593567,362.450928 
	C368.813843,357.020416 371.717590,352.962708 374.854401,350.605621 
	C382.793854,344.639648 384.695831,335.939606 387.933563,327.681732 
	C389.132385,324.624207 390.317688,321.500763 392.004578,318.706451 
	C397.270569,309.983307 395.864380,300.394867 396.010254,290.986023 
	C396.049530,288.453278 395.288422,285.766754 398.559998,284.130005 
	C399.357391,283.731079 399.435089,280.829193 399.016937,279.304962 
	C398.322174,276.772400 397.202301,274.273407 395.822998,272.029816 
	C393.302551,267.929840 394.838043,264.683777 397.737701,261.860260 
	C400.007996,259.649597 400.468414,257.570251 398.979218,254.764069 
	C398.428802,253.726837 398.326935,252.217728 398.567657,251.035217 
	C399.583984,246.042252 401.308716,241.137115 401.767853,236.107971 
	C402.049103,233.027664 401.454773,228.943741 399.564728,226.798553 
	C396.485382,223.303528 397.528046,220.201920 398.226501,216.668732 
	C399.897522,208.215759 400.278351,200.064560 391.971771,193.973221 
	C397.301819,191.374268 402.771240,188.126251 408.682159,186.669235 
	C417.673370,184.452927 426.970642,183.478134 436.518738,182.420303 
	C436.635376,183.647980 436.102478,184.447449 436.148132,185.212372 
	C436.664520,193.864624 437.597229,202.506454 437.732452,211.161804 
	C437.818604,216.674393 436.658234,222.197495 436.244812,227.729935 
	C435.957764,231.571457 434.464294,236.468918 436.218414,239.063217 
	C439.274231,243.582596 439.211578,248.174377 440.169434,252.965012 
	C442.009247,262.166626 438.241608,272.127991 443.763794,280.886292 
	C440.761841,282.207336 437.972595,283.263824 435.289917,284.543732 
	C418.217987,292.688751 406.698914,306.122650 398.492310,323.066864 
	C391.110626,328.375000 391.606628,335.570862 392.955322,343.363892 
	C392.756378,366.814819 392.618164,389.905090 392.134369,412.984497 
	C387.963318,409.825043 383.886322,409.858276 379.429535,411.599884 
	C378.317596,412.034393 376.614960,411.315887 375.303711,410.814026 
	C371.476410,409.348999 365.503571,411.303528 363.128448,414.588074 
	C360.869873,417.711426 358.727814,421.225311 355.701630,423.417847 
	C350.771301,426.989960 342.767883,426.324951 341.018005,434.327057 
	C340.906677,434.836029 340.105713,435.278198 339.536591,435.588104 
	C337.382263,436.761536 335.191223,437.867645 333.013885,438.998901 
	C332.953949,424.973663 332.894012,410.948425 332.922272,396.461426 
z"/>
<path fill="#4F68EC" opacity="1.000000" stroke="none" 
	d="
M422.055908,580.966614 
	C420.352844,581.870483 418.649780,582.774292 416.494171,583.918213 
	C415.533447,582.537109 414.536926,581.104431 413.531128,579.658447 
	C400.981415,580.745972 398.803497,582.084229 399.525116,588.536865 
	C400.839325,588.853271 402.234467,589.189209 403.603699,589.518921 
	C404.768921,594.173035 400.843109,595.229309 398.509888,595.306885 
	C396.901489,595.360413 395.182159,592.079163 393.530640,590.307800 
	C392.645172,590.885742 390.821472,591.900085 389.219269,593.189697 
	C388.301666,593.928284 387.187927,595.078247 387.121582,596.104980 
	C386.848541,600.330017 385.021179,601.792969 382.663757,600.718018 
	C379.937988,603.108704 378.030182,604.769043 376.137054,606.445984 
	C374.029419,608.312805 372.215637,610.780701 369.776733,611.947998 
	C364.699890,614.377808 364.401276,621.861938 357.936310,622.655212 
	C357.216827,622.743469 356.637512,623.974243 355.922546,625.062744 
	C344.715912,612.285828 338.289551,596.850220 335.115387,580.151306 
	C333.511139,571.711670 333.036011,562.980896 332.851990,554.364563 
	C332.521545,538.891052 332.795776,523.404602 333.247314,507.515228 
	C335.406250,508.582703 336.760101,509.135010 339.228607,507.621979 
	C345.723145,503.641296 352.594757,500.275696 359.812744,496.398346 
	C359.714142,492.735809 359.896149,488.570435 366.460815,490.515991 
	C367.632263,490.863159 369.368622,489.268127 370.855591,488.595154 
	C372.810944,487.710236 374.861084,486.996674 376.715820,485.938385 
	C378.561035,484.885529 381.640167,483.570404 381.708313,482.243469 
	C382.019928,476.174469 384.358673,473.616669 391.003662,476.122650 
	C391.003662,473.539062 390.852295,471.733948 391.039001,469.964478 
	C391.322449,467.278259 391.840607,464.616821 392.415985,462.320953 
	C392.601685,481.319122 392.806396,499.943176 392.599396,518.562622 
	C392.453644,531.672058 395.379822,543.963196 401.369354,555.507080 
	C403.148407,558.936035 405.845276,561.888855 408.369141,565.276611 
	C409.677399,567.104736 410.553223,568.883972 411.834869,570.294434 
	C415.146271,573.938721 418.636871,577.420166 422.055908,580.966614 
z"/>
<path fill="#7153EC" opacity="1.000000" stroke="none" 
	d="
M740.535889,181.981354 
	C741.926331,188.460617 747.283691,186.455200 751.630920,187.311096 
	C751.297424,188.828506 750.766724,190.183716 750.776367,191.535049 
	C750.784058,192.613724 751.452209,194.623917 751.823608,194.623062 
	C757.265198,194.610550 756.920837,198.725708 757.615295,202.460510 
	C756.181458,202.820099 754.810913,203.163788 753.236206,203.558701 
	C753.205688,206.994232 752.859314,209.605881 748.802734,211.118546 
	C745.083313,212.505539 744.509583,218.563736 746.733215,222.254868 
	C748.401367,225.023941 746.972717,231.603943 744.209900,233.876465 
	C737.664246,239.260529 737.028564,244.090500 741.886719,251.439514 
	C742.247742,251.985687 742.845215,252.587128 742.822998,253.142471 
	C742.593018,258.892426 742.548401,264.674500 741.835449,270.370453 
	C741.454041,273.417511 740.552551,273.393646 733.906189,270.609528 
	C733.906189,274.172058 733.906189,277.191528 733.573120,280.564514 
	C728.483521,279.798035 723.726990,278.678009 718.829102,277.204132 
	C716.948303,276.569733 715.210144,276.054260 713.469421,276.045624 
	C698.980530,275.973694 684.491211,275.995148 670.000732,275.587952 
	C669.425598,272.322632 668.327087,269.444366 668.399780,266.596008 
	C668.511963,262.201263 669.481323,257.833221 669.977234,253.441422 
	C670.236633,251.143387 669.657471,248.562820 670.508240,246.555389 
	C672.857544,241.012131 672.031799,235.783356 670.775818,230.157608 
	C669.471802,224.316422 669.395569,218.201096 668.783691,212.205505 
	C668.511841,209.540955 669.256836,205.576035 667.796753,204.437851 
	C661.689697,199.677017 661.228149,193.837952 662.577576,188.155106 
	C661.115784,185.666260 660.057373,183.864197 658.998962,182.062134 
	C686.023376,182.010452 713.047791,181.958755 740.535889,181.981354 
z"/>
<path fill="#7352EC" opacity="1.000000" stroke="none" 
	d="
M769.890808,554.938416 
	C770.090332,555.952637 770.639832,557.048706 770.425293,557.966064 
	C769.719055,560.985229 769.294312,564.285400 767.717407,566.830872 
	C765.763672,569.984558 762.883057,572.611511 760.182922,575.240051 
	C758.093140,577.274536 756.393372,579.046021 756.155151,582.396118 
	C755.869812,586.407471 753.827942,589.417603 749.394043,591.243713 
	C743.711853,593.583923 741.196960,598.982361 739.911438,604.962036 
	C739.421143,607.242432 738.459473,610.472717 736.781799,611.243286 
	C732.312134,613.296143 730.905640,616.826538 730.186340,621.003967 
	C729.332947,625.960022 726.998413,629.548157 722.158203,631.517700 
	C720.584961,632.157837 718.977722,633.516541 718.129333,634.978088 
	C715.994812,638.654846 714.141846,642.517639 712.487671,646.437439 
	C711.971619,647.660217 712.109436,649.414795 712.538635,650.733765 
	C713.954407,655.084045 712.972961,656.483765 708.518066,655.909912 
	C707.253296,655.747009 706.008606,655.427795 704.243774,655.079407 
	C703.648621,661.926025 704.203613,668.169678 706.947144,674.535034 
	C681.306519,674.958618 655.614990,675.007507 629.468079,674.601624 
	C630.731506,672.763184 632.272400,670.631348 634.210754,670.170227 
	C637.171387,669.466064 639.336121,668.844666 639.025940,665.260010 
	C638.798584,662.633423 638.640198,660.000793 638.385681,656.461304 
	C641.666321,655.214539 643.130127,651.699646 643.632080,647.109253 
	C644.103516,642.798340 645.523132,638.547974 646.886414,634.389282 
	C648.400085,629.771912 650.296936,625.278320 652.092834,620.757019 
	C652.375916,620.044434 652.892639,619.069092 653.495361,618.897827 
	C656.957031,617.913635 657.938965,615.563293 658.264771,612.206482 
	C658.412231,610.686829 659.923401,608.974548 661.275024,607.963196 
	C664.261963,605.728210 665.884827,603.400146 664.406494,599.484802 
	C663.790833,597.854309 664.099060,595.874939 664.410889,594.036865 
	C666.525085,594.020264 668.215576,594.021118 670.358704,594.089355 
	C673.831909,594.081970 676.852478,594.007263 680.350586,593.954224 
	C692.480774,593.985229 704.133545,594.045166 715.785522,593.968628 
	C718.747070,593.949219 721.743347,593.712036 724.659729,593.206360 
	C742.138184,590.175293 753.833862,579.235352 763.061279,564.940369 
	C765.249939,561.549683 767.609741,558.269409 769.890808,554.938416 
z"/>
<path fill="#4863EA" opacity="1.000000" stroke="none" 
	d="
M444.025787,280.725067 
	C438.241608,272.127991 442.009247,262.166626 440.169434,252.965012 
	C439.211578,248.174377 439.274231,243.582596 436.218414,239.063217 
	C434.464294,236.468918 435.957764,231.571457 436.244812,227.729935 
	C436.658234,222.197495 437.818604,216.674393 437.732452,211.161804 
	C437.597229,202.506454 436.664520,193.864624 436.148132,185.212372 
	C436.102478,184.447449 436.635376,183.647980 436.948669,182.492950 
	C455.023010,182.055298 473.048187,181.989258 491.538330,182.418182 
	C492.396088,190.468964 495.839325,197.866501 493.150116,205.606369 
	C492.945709,206.194626 493.394470,207.332062 493.913330,207.798447 
	C498.077362,211.541336 500.268646,215.662506 497.052063,221.132507 
	C496.831970,221.506790 496.970703,222.116318 497.005096,222.612106 
	C497.285583,226.659439 497.863495,230.709061 497.815460,234.751633 
	C497.700470,244.436340 497.065735,254.118668 497.112152,263.799683 
	C497.131714,267.869385 498.341980,271.933411 498.592285,276.002197 
	C496.777924,276.002686 495.382263,276.000977 493.759979,275.729248 
	C492.027100,275.639099 490.520844,275.818939 488.544983,276.001892 
	C479.526459,276.007172 470.975677,275.921448 462.430206,276.095093 
	C460.946411,276.125275 459.484894,277.251617 457.615723,277.973083 
	C454.522705,278.482788 451.826996,278.891022 448.982788,279.034973 
	C448.224091,279.148651 447.613861,279.526581 446.749542,280.038818 
	C445.672211,280.357117 444.848999,280.541077 444.025787,280.725067 
z"/>
<path fill="#6954EC" opacity="1.000000" stroke="none" 
	d="
M663.987183,594.054260 
	C664.099060,595.874939 663.790833,597.854309 664.406494,599.484802 
	C665.884827,603.400146 664.261963,605.728210 661.275024,607.963196 
	C659.923401,608.974548 658.412231,610.686829 658.264771,612.206482 
	C657.938965,615.563293 656.957031,617.913635 653.495361,618.897827 
	C652.892639,619.069092 652.375916,620.044434 652.092834,620.757019 
	C650.296936,625.278320 648.400085,629.771912 646.886414,634.389282 
	C645.523132,638.547974 644.103516,642.798340 643.632080,647.109253 
	C643.130127,651.699646 641.666321,655.214539 638.385681,656.461304 
	C638.640198,660.000793 638.798584,662.633423 639.025940,665.260010 
	C639.336121,668.844666 637.171387,669.466064 634.210754,670.170227 
	C632.272400,670.631348 630.731506,672.763184 629.004333,674.526489 
	C599.639404,674.950134 570.282837,674.994080 540.462830,674.961365 
	C540.571960,670.202026 544.849731,670.936646 547.625305,670.233643 
	C551.304932,669.301453 554.746521,670.058350 554.582886,663.950806 
	C554.498596,660.805237 558.105713,657.043335 560.880432,654.455994 
	C565.384827,650.255798 570.597778,646.819946 575.472046,643.010742 
	C581.808533,638.058777 588.491150,633.460571 594.282776,627.932617 
	C598.025391,624.360352 600.379883,619.352783 603.478943,615.077271 
	C604.621887,613.500427 606.417358,612.348083 607.354797,610.686035 
	C608.110107,609.346924 608.802429,607.063416 608.170288,606.011536 
	C605.723083,601.939270 605.024109,598.723083 610.336304,596.559937 
	C610.726196,596.401245 610.771790,595.396973 611.452026,594.401245 
	C629.280212,594.029175 646.633667,594.041748 663.987183,594.054260 
z"/>
<path fill="#6954EC" opacity="1.000000" stroke="none" 
	d="
M658.535034,181.989700 
	C660.057373,183.864197 661.115784,185.666260 662.577576,188.155106 
	C661.228149,193.837952 661.689697,199.677017 667.796753,204.437851 
	C669.256836,205.576035 668.511841,209.540955 668.783691,212.205505 
	C669.395569,218.201096 669.471802,224.316422 670.775818,230.157608 
	C672.031799,235.783356 672.857544,241.012131 670.508240,246.555389 
	C669.657471,248.562820 670.236633,251.143387 669.977234,253.441422 
	C669.481323,257.833221 668.511963,262.201263 668.399780,266.596008 
	C668.327087,269.444366 669.425598,272.322632 669.531860,275.594604 
	C655.042114,275.993652 641.019836,275.985626 626.993896,275.610687 
	C626.075745,273.736450 625.009094,272.298065 624.286133,270.703857 
	C623.432434,268.820984 621.890625,266.516205 622.363281,264.894714 
	C624.258240,258.394592 625.126038,252.274170 620.441467,246.530548 
	C620.010254,246.001846 620.186523,244.947769 620.147156,244.134430 
	C619.919250,239.419739 620.201477,234.618362 619.394653,230.006607 
	C617.708130,220.365753 617.619324,211.532349 622.508301,202.202744 
	C624.595337,198.220169 621.186951,191.282837 620.040894,185.736710 
	C619.772888,184.439911 618.550354,183.340347 617.766968,182.150055 
	C631.201660,182.072464 644.636414,181.994858 658.535034,181.989700 
z"/>
<path fill="#456AEB" opacity="1.000000" stroke="none" 
	d="
M392.259064,461.944855 
	C391.840607,464.616821 391.322449,467.278259 391.039001,469.964478 
	C390.852295,471.733948 391.003662,473.539062 391.003662,476.122650 
	C384.358673,473.616669 382.019928,476.174469 381.708313,482.243469 
	C381.640167,483.570404 378.561035,484.885529 376.715820,485.938385 
	C374.861084,486.996674 372.810944,487.710236 370.855591,488.595154 
	C369.368622,489.268127 367.632263,490.863159 366.460815,490.515991 
	C359.896149,488.570435 359.714142,492.735809 359.812744,496.398346 
	C352.594757,500.275696 345.723145,503.641296 339.228607,507.621979 
	C336.760101,509.135010 335.406250,508.582703 333.333130,507.052917 
	C332.939087,484.640320 332.889191,462.281616 332.926575,439.460938 
	C335.191223,437.867645 337.382263,436.761536 339.536591,435.588104 
	C340.105713,435.278198 340.906677,434.836029 341.018005,434.327057 
	C342.767883,426.324951 350.771301,426.989960 355.701630,423.417847 
	C358.727814,421.225311 360.869873,417.711426 363.128448,414.588074 
	C365.503571,411.303528 371.476410,409.348999 375.303711,410.814026 
	C376.614960,411.315887 378.317596,412.034393 379.429535,411.599884 
	C383.886322,409.858276 387.963318,409.825043 392.193054,413.443970 
	C392.480835,417.605713 392.364349,421.297089 391.948151,425.013550 
	C391.134827,425.545471 390.621246,426.052307 390.107666,426.559143 
	C390.823425,427.043518 391.539185,427.527863 392.403076,428.455200 
	C392.453796,439.913696 392.356415,450.929291 392.259064,461.944855 
z"/>
<path fill="#575AEA" opacity="1.000000" stroke="none" 
	d="
M626.997559,275.977600 
	C641.019836,275.985626 655.042114,275.993652 669.533203,275.995056 
	C684.491211,275.995148 698.980530,275.973694 713.469421,276.045624 
	C715.210144,276.054260 716.948303,276.569733 718.368774,277.277161 
	C631.370911,277.759888 544.692017,277.815735 458.013092,277.871643 
	C459.484894,277.251617 460.946411,276.125275 462.430206,276.095093 
	C470.975677,275.921448 479.526459,276.007172 488.959076,276.004089 
	C491.223999,276.001892 492.605286,276.000580 493.986572,275.999268 
	C495.382263,276.000977 496.777924,276.002686 499.059692,276.003632 
	C513.822693,275.847504 527.699646,275.692139 541.242859,275.540497 
	C540.787170,266.029480 540.601929,257.795990 539.897949,249.607117 
	C539.614258,246.307022 537.966736,243.146484 537.359436,239.845245 
	C536.815552,236.888824 536.596375,233.818893 536.685791,230.812500 
	C536.816833,226.409302 537.389465,222.020676 537.687012,217.619965 
	C537.762268,216.507034 537.350281,215.360306 537.431458,214.248779 
	C537.953186,207.104599 539.819519,199.833878 534.781677,193.056229 
	C539.912720,191.064835 539.971252,187.913956 537.233276,184.083954 
	C536.877686,183.586563 536.916748,182.807129 536.772949,182.158340 
	C548.538696,182.080765 560.304443,182.003189 572.541504,182.375397 
	C573.350647,185.618210 573.651001,188.416519 574.044373,191.201691 
	C574.203552,192.329117 574.188599,193.914169 574.895508,194.462387 
	C580.307190,198.659225 577.976257,205.208755 577.991699,209.833008 
	C578.021912,218.914993 579.997925,227.481461 581.107178,236.277222 
	C581.500183,239.393326 580.721924,242.646103 580.608093,245.841110 
	C580.532898,247.951431 580.551086,250.084412 580.770935,252.181717 
	C581.169861,255.986389 583.120972,260.286957 581.934387,263.445068 
	C580.149353,268.195740 580.737061,271.826324 583.119385,275.977600 
	C597.734375,275.977600 612.365967,275.977600 626.997559,275.977600 
M574.931091,275.978577 
	C575.638000,275.890350 576.344849,275.802155 577.051758,275.713959 
	C576.970642,275.444702 576.889587,275.175446 576.808533,274.906158 
	C575.989990,275.238342 575.171448,275.570526 574.931091,275.978577 
z"/>
<path fill="#515FEA" opacity="1.000000" stroke="none" 
	d="
M536.404419,182.063477 
	C536.916748,182.807129 536.877686,183.586563 537.233276,184.083954 
	C539.971252,187.913956 539.912720,191.064835 534.781677,193.056229 
	C539.819519,199.833878 537.953186,207.104599 537.431458,214.248779 
	C537.350281,215.360306 537.762268,216.507034 537.687012,217.619965 
	C537.389465,222.020676 536.816833,226.409302 536.685791,230.812500 
	C536.596375,233.818893 536.815552,236.888824 537.359436,239.845245 
	C537.966736,243.146484 539.614258,246.307022 539.897949,249.607117 
	C540.601929,257.795990 540.787170,266.029480 541.242859,275.540497 
	C527.699646,275.692139 513.822693,275.847504 499.478394,276.001434 
	C498.341980,271.933411 497.131714,267.869385 497.112152,263.799683 
	C497.065735,254.118668 497.700470,244.436340 497.815460,234.751633 
	C497.863495,230.709061 497.285583,226.659439 497.005096,222.612106 
	C496.970703,222.116318 496.831970,221.506790 497.052063,221.132507 
	C500.268646,215.662506 498.077362,211.541336 493.913330,207.798447 
	C493.394470,207.332062 492.945709,206.194626 493.150116,205.606369 
	C495.839325,197.866501 492.396088,190.468964 492.001862,182.493515 
	C506.678894,182.038788 521.357422,182.003708 536.404419,182.063477 
z"/>
<path fill="#615AEB" opacity="1.000000" stroke="none" 
	d="
M626.993896,275.610718 
	C612.365967,275.977600 597.734375,275.977600 583.119385,275.977600 
	C580.737061,271.826324 580.149353,268.195740 581.934387,263.445068 
	C583.120972,260.286957 581.169861,255.986389 580.770935,252.181717 
	C580.551086,250.084412 580.532898,247.951431 580.608093,245.841110 
	C580.721924,242.646103 581.500183,239.393326 581.107178,236.277222 
	C579.997925,227.481461 578.021912,218.914993 577.991699,209.833008 
	C577.976257,205.208755 580.307190,198.659225 574.895508,194.462387 
	C574.188599,193.914169 574.203552,192.329117 574.044373,191.201691 
	C573.651001,188.416519 573.350647,185.618210 573.005310,182.447708 
	C587.678467,182.032944 602.359131,181.995667 617.403442,182.054214 
	C618.550354,183.340347 619.772888,184.439911 620.040894,185.736710 
	C621.186951,191.282837 624.595337,198.220169 622.508301,202.202744 
	C617.619324,211.532349 617.708130,220.365753 619.394653,230.006607 
	C620.201477,234.618362 619.919250,239.419739 620.147156,244.134430 
	C620.186523,244.947769 620.010254,246.001846 620.441467,246.530548 
	C625.126038,252.274170 624.258240,258.394592 622.363281,264.894714 
	C621.890625,266.516205 623.432434,268.820984 624.286133,270.703857 
	C625.009094,272.298065 626.075745,273.736450 626.993896,275.610718 
z"/>
<path fill="#946EED" opacity="1.000000" stroke="none" 
	d="
M920.040771,570.609863 
	C919.561340,569.350098 919.089539,567.756836 919.088928,566.163452 
	C919.057739,479.577911 919.056824,392.992340 919.084534,306.406799 
	C919.087341,297.656219 919.585632,288.895020 919.272827,280.159546 
	C919.111145,275.646271 917.646667,271.183319 916.828369,266.687134 
	C916.633057,265.614105 916.667908,264.499176 916.880249,263.180542 
	C918.410400,271.787781 920.639771,280.607635 920.733521,289.450104 
	C921.130859,326.928619 920.888977,364.413879 920.889954,401.896667 
	C920.891174,452.540070 920.920410,503.183533 920.878906,553.826904 
	C920.874390,559.310181 920.481201,564.793213 920.040771,570.609863 
z"/>
<path fill="#1B2742" opacity="1.000000" stroke="none" 
	d="
M499.230347,962.645935 
	C498.370026,960.808411 497.090118,958.598999 497.085876,956.387024 
	C496.976196,899.179932 496.999359,841.972534 496.999512,784.765198 
	C496.999512,780.607666 497.163666,776.441284 496.937653,772.296082 
	C496.804504,769.853882 496.052643,767.445435 495.891357,764.972290 
	C497.382904,768.637451 499.576630,772.348450 499.589844,776.067261 
	C499.807343,837.313965 499.751678,898.561707 499.740387,959.809204 
	C499.740234,960.630432 499.521790,961.451599 499.230347,962.645935 
z"/>
<path fill="#575AEA" opacity="1.000000" stroke="none" 
	d="
M561.382324,1064.459106 
	C561.703613,1065.589844 561.828674,1066.427490 561.953735,1067.265259 
	C559.937805,1066.931641 557.380371,1067.242188 556.034973,1066.111084 
	C554.094055,1064.479248 553.205566,1061.659302 551.532227,1059.622192 
	C550.513672,1058.382080 548.863892,1057.660645 547.753479,1056.884888 
	C544.229614,1060.498047 550.345398,1068.966064 540.321655,1067.384399 
	C540.321655,1058.027588 540.321655,1048.837891 540.321655,1039.186279 
	C545.265259,1039.186279 550.201355,1038.820190 555.052185,1039.305664 
	C558.725525,1039.673462 561.357422,1042.091064 562.185303,1045.989624 
	C563.202148,1050.777832 560.897827,1053.937988 556.550598,1056.572021 
	C558.144165,1059.182739 559.665161,1061.674438 561.382324,1064.459106 
M546.738098,1051.886963 
	C549.631653,1051.334351 552.587402,1050.969604 555.359741,1050.051025 
	C555.842834,1049.891113 555.925842,1046.280640 555.560364,1046.158569 
	C552.789246,1045.232422 549.863159,1044.763916 546.974426,1044.209473 
	C546.781982,1044.172363 546.500183,1044.600464 546.177673,1044.884644 
	C546.177673,1046.938721 546.177673,1049.061157 546.738098,1051.886963 
z"/>
<path fill="#7A4FEA" opacity="1.000000" stroke="none" 
	d="
M679.398682,1067.843018 
	C666.380859,1069.592407 660.491089,1059.144531 661.545471,1051.450806 
	C662.577332,1043.921143 668.552856,1038.589966 676.201294,1038.395386 
	C683.297852,1038.215088 689.498474,1043.228638 690.809937,1050.207520 
	C692.317871,1058.232056 688.174622,1064.847534 679.398682,1067.843018 
M674.854675,1043.883301 
	C670.223572,1044.787598 668.215210,1047.886353 667.891479,1052.318359 
	C667.610901,1056.159180 668.241638,1059.675293 672.057190,1061.674927 
	C675.505249,1063.481934 678.920471,1063.125244 681.788208,1060.604736 
	C685.131042,1057.666748 685.612915,1053.781372 684.355286,1049.666992 
	C683.056091,1045.416870 680.040527,1043.589355 674.854675,1043.883301 
z"/>
<path fill="#7A4FEA" opacity="1.000000" stroke="none" 
	d="
M720.131836,1068.021973 
	C711.546509,1066.692505 707.012695,1062.031738 706.394836,1054.334106 
	C705.831421,1047.314209 709.687683,1041.334351 716.144226,1039.216431 
	C722.671936,1037.075073 728.689148,1039.123535 732.213318,1044.917969 
	C731.066528,1045.735474 729.899231,1046.567505 728.617798,1047.480957 
	C724.726868,1043.774536 720.437195,1042.083740 715.928894,1045.381714 
	C711.885620,1048.339600 711.895996,1052.877808 713.174194,1057.215820 
	C714.368958,1061.270386 717.721985,1062.860352 721.692383,1062.779907 
	C724.771851,1062.717773 726.971741,1061.204102 727.381592,1057.805664 
	C725.371765,1055.937378 719.423462,1058.555054 721.629150,1052.297852 
	C725.450684,1052.297852 729.211365,1052.297852 732.952759,1052.297852 
	C735.184692,1061.794556 730.765198,1067.358643 720.131836,1068.021973 
z"/>
<path fill="#8649EA" opacity="1.000000" stroke="none" 
	d="
M919.927246,1067.212769 
	C917.893250,1064.669678 916.379883,1062.079834 914.464783,1059.832397 
	C913.289917,1058.453613 911.499878,1057.599121 909.986084,1056.509155 
	C909.556091,1056.803467 909.126038,1057.097900 908.696045,1057.392212 
	C908.696045,1059.838257 909.010254,1062.344360 908.558594,1064.703857 
	C908.344482,1065.822510 906.688538,1067.390869 905.647217,1067.421143 
	C904.607849,1067.451172 902.630310,1065.845703 902.595886,1064.901489 
	C902.341309,1057.919922 902.454407,1050.924194 902.489685,1043.933350 
	C902.497131,1042.462280 902.661133,1040.992065 902.772522,1039.208984 
	C907.788208,1039.208984 912.711243,1038.495117 917.269348,1039.476440 
	C920.007629,1040.066040 923.175110,1042.837769 924.381104,1045.446411 
	C926.495605,1050.020386 923.671753,1053.702026 919.300476,1056.645630 
	C921.239868,1059.995239 923.119751,1063.242188 925.475281,1067.310547 
	C923.367126,1067.310547 921.822693,1067.310547 919.927246,1067.212769 
M918.922424,1048.411133 
	C917.833191,1041.422974 912.666565,1044.665771 908.755981,1043.856689 
	C908.755981,1046.927002 908.755981,1049.431396 908.755981,1053.766846 
	C912.801819,1051.930908 915.790039,1050.574829 918.922424,1048.411133 
z"/>
<path fill="#4863EA" opacity="1.000000" stroke="none" 
	d="
M446.256226,1052.244385 
	C445.727386,1062.649536 439.747406,1068.545654 430.649628,1068.048218 
	C422.324829,1067.593262 416.604004,1060.947998 417.000427,1052.193726 
	C417.347961,1044.519165 422.977020,1038.810181 430.671906,1038.328125 
	C438.784790,1037.820068 444.924713,1043.160400 446.256226,1052.244385 
M423.873779,1057.302612 
	C426.618317,1062.274414 430.312622,1063.906372 434.726318,1062.096680 
	C438.998779,1060.344971 441.147217,1055.094604 439.698486,1049.945190 
	C438.431976,1045.443359 434.557373,1043.127319 429.705505,1043.972046 
	C424.667358,1044.848999 422.448395,1049.425659 423.873779,1057.302612 
z"/>
<path fill="#8649EA" opacity="1.000000" stroke="none" 
	d="
M847.680664,1056.944092 
	C847.684265,1060.552124 847.684265,1063.671143 847.684265,1067.203247 
	C845.735229,1067.300415 844.169678,1067.378418 842.024902,1067.485352 
	C842.024902,1063.524536 842.024902,1059.947632 842.024902,1055.956055 
	C837.790894,1055.956055 834.105225,1055.956055 829.952271,1055.956055 
	C829.952271,1059.656860 829.952271,1063.240356 829.952271,1067.343384 
	C827.800110,1067.448608 826.075684,1067.532837 823.971985,1067.635620 
	C823.971985,1058.031250 823.971985,1048.819946 823.971985,1039.279541 
	C825.833130,1039.279541 827.533386,1039.279541 829.597229,1039.279541 
	C829.597229,1042.814331 829.597229,1046.093628 829.597229,1049.812256 
	C833.658997,1049.812256 837.371948,1049.812256 841.647400,1049.812256 
	C841.793518,1046.578247 841.947144,1043.177612 842.121155,1039.326660 
	C843.762329,1039.204224 845.330078,1039.087280 847.677063,1038.912231 
	C847.677063,1045.000366 847.677063,1050.727783 847.680664,1056.944092 
z"/>
<path fill="#814CEA" opacity="1.000000" stroke="none" 
	d="
M750.474487,1057.917969 
	C750.474854,1051.462402 750.474854,1045.494995 750.474854,1039.241699 
	C757.035828,1039.241699 763.109314,1039.241699 769.533081,1039.241699 
	C769.533081,1040.716431 769.533081,1042.082153 769.533081,1043.962646 
	C765.242615,1043.962646 761.151428,1043.962646 756.848206,1043.962646 
	C756.848206,1046.208618 756.848206,1047.941406 756.848206,1049.192383 
	C760.212585,1052.746216 767.534302,1046.598511 768.982300,1055.119751 
	C764.648682,1055.313477 761.044250,1055.474731 757.074829,1055.652222 
	C757.074829,1057.841797 757.074829,1059.725830 757.074829,1062.463013 
	C760.439514,1062.463013 763.741699,1062.242065 766.986145,1062.578247 
	C768.183533,1062.702271 769.244812,1064.139404 770.368164,1064.977539 
	C769.301270,1065.851929 768.269409,1067.426147 767.161377,1067.481689 
	C761.870361,1067.747314 756.558594,1067.600708 750.474182,1067.600708 
	C750.474182,1064.263794 750.474182,1061.335083 750.474487,1057.917969 
z"/>
<path fill="#4863EA" opacity="1.000000" stroke="none" 
	d="
M474.057373,1038.315674 
	C478.789124,1038.570923 482.569244,1039.820923 485.013824,1044.222290 
	C483.772675,1045.149902 482.634521,1046.000610 481.501038,1046.847900 
	C480.895630,1046.585327 480.462952,1046.389526 480.024048,1046.208862 
	C477.960541,1045.359497 475.929565,1043.997559 473.818085,1043.857666 
	C472.515991,1043.771362 471.090210,1045.550781 469.719971,1046.492432 
	C470.804657,1047.589233 471.701477,1049.120361 473.014862,1049.688354 
	C475.427002,1050.731567 478.422485,1050.686890 480.545227,1052.065308 
	C482.691132,1053.458740 485.285339,1055.924805 485.470764,1058.108887 
	C485.681854,1060.594727 484.082977,1063.991943 482.144318,1065.752808 
	C477.382111,1070.078125 464.938660,1068.584717 462.665222,1061.344604 
	C463.726685,1060.603027 464.889038,1059.791016 466.049927,1058.979980 
	C466.646210,1059.246460 467.123840,1059.376343 467.503113,1059.645020 
	C468.706879,1060.497559 469.751495,1061.773438 471.079895,1062.211060 
	C474.134583,1063.217773 477.676636,1063.974609 479.027130,1060.076904 
	C479.287750,1059.324707 475.705078,1057.092651 473.736481,1055.781860 
	C472.819794,1055.171509 471.510376,1055.172729 470.401337,1054.825439 
	C466.521637,1053.610229 463.176758,1051.729004 463.339844,1047.023804 
	C463.500580,1042.386597 466.401825,1039.878296 470.712097,1038.819702 
	C471.676788,1038.582886 472.675140,1038.483032 474.057373,1038.315674 
z"/>
<path fill="#515FEA" opacity="1.000000" stroke="none" 
	d="
M503.129578,1042.260742 
	C504.104187,1040.841187 505.037933,1039.130615 506.058258,1039.077271 
	C511.340271,1038.801270 516.644470,1038.948853 521.921875,1038.948853 
	C523.735657,1043.254272 521.885254,1044.192871 518.233276,1043.959961 
	C515.436829,1043.781860 512.619873,1043.924683 509.439423,1043.924683 
	C509.439423,1046.030029 509.439423,1047.745728 509.439423,1049.280151 
	C512.598389,1052.771118 520.216919,1046.510864 521.735107,1055.328003 
	C517.292053,1055.328003 513.547119,1055.328003 509.428711,1055.328003 
	C509.428711,1057.691772 509.428711,1059.598999 509.428711,1062.364746 
	C512.591614,1062.364746 515.831604,1062.504395 519.054260,1062.328247 
	C522.772888,1062.125000 523.359070,1063.835083 522.159729,1067.229980 
	C516.007935,1067.229980 509.783020,1067.229980 503.128632,1067.229980 
	C503.128632,1058.943359 503.128632,1050.838867 503.129578,1042.260742 
z"/>
<path fill="#8649EA" opacity="1.000000" stroke="none" 
	d="
M878.826050,1062.336914 
	C882.060181,1062.775513 886.788208,1060.730835 885.069458,1067.255127 
	C878.839966,1067.255127 872.616638,1067.255127 866.166870,1067.255127 
	C866.166870,1057.880249 866.166870,1048.787354 866.166870,1039.318848 
	C872.410706,1039.318848 878.459473,1039.318848 884.768250,1039.318848 
	C884.768250,1040.708130 884.768250,1041.967163 884.768250,1043.811279 
	C880.645996,1043.811279 876.571838,1043.811279 872.187500,1043.811279 
	C872.187500,1046.119629 872.187500,1047.852661 872.187500,1050.199097 
	C875.984863,1050.199097 879.714783,1050.199097 883.730591,1050.199097 
	C883.730591,1052.206665 883.730591,1053.611816 883.730591,1055.395752 
	C879.945129,1055.395752 876.326416,1055.395752 872.280640,1055.395752 
	C872.280640,1057.659058 872.280640,1059.548828 872.280640,1062.337036 
	C874.228394,1062.337036 876.296692,1062.337036 878.826050,1062.336914 
z"/>
<path fill="#2D64CE" opacity="1.000000" stroke="none" 
	d="
M360.935272,1059.332153 
	C362.892914,1059.353149 364.652161,1059.674561 366.569031,1060.024780 
	C363.659760,1066.408203 357.627594,1069.155273 351.049225,1067.643188 
	C344.222137,1066.073975 340.031433,1060.699219 340.024933,1053.503906 
	C340.018188,1046.039185 344.454926,1040.234131 351.166229,1038.926147 
	C358.330872,1037.529785 363.586304,1039.827148 366.154694,1045.662720 
	C364.937164,1046.402588 363.691284,1047.159668 362.497559,1047.885010 
	C356.305084,1042.984375 352.033356,1042.571777 348.552460,1046.441040 
	C345.416290,1049.927490 345.537201,1056.966919 348.790161,1060.270752 
	C352.060211,1063.591919 356.233307,1063.369019 360.935272,1059.332153 
z"/>
<path fill="#814CEA" opacity="1.000000" stroke="none" 
	d="
M785.565063,1042.669434 
	C786.272400,1041.182495 787.050354,1039.187378 787.909058,1039.152222 
	C794.359741,1038.886719 800.826355,1039.007568 807.589233,1039.007568 
	C807.670654,1040.712769 807.730469,1041.965454 807.813599,1043.705933 
	C805.166748,1043.871094 802.759338,1044.021362 799.845764,1044.203247 
	C799.845764,1051.847412 799.845764,1059.269043 799.845764,1067.209351 
	C797.634644,1067.319824 795.921936,1067.405273 793.663940,1067.518066 
	C793.663940,1059.613892 793.663940,1052.171875 793.663940,1044.664185 
	C790.675293,1044.067505 788.174194,1043.568237 785.565063,1042.669434 
z"/>
<path fill="#2D64CE" opacity="1.000000" stroke="none" 
	d="
M383.455200,1064.450684 
	C383.443146,1055.880859 383.443146,1047.758301 383.443146,1039.319092 
	C385.616364,1039.319092 387.323029,1039.319092 389.564819,1039.319092 
	C389.564819,1046.892334 389.564819,1054.307495 389.564819,1062.364258 
	C394.136780,1062.364258 398.200317,1062.364258 402.076752,1062.364258 
	C403.472137,1066.102539 402.757202,1067.675049 399.108368,1067.531006 
	C394.962311,1067.367310 390.791626,1067.680176 386.660553,1067.383301 
	C385.542358,1067.302979 384.528839,1065.766235 383.455200,1064.450684 
z"/>
<path fill="#6954EC" opacity="1.000000" stroke="none" 
	d="
M633.072510,1038.948120 
	C638.184387,1038.948853 642.806580,1038.948853 647.745239,1038.948853 
	C647.745239,1040.716797 647.745239,1042.089844 647.745239,1043.765259 
	C645.208252,1043.888916 642.794922,1044.006592 639.991272,1044.143188 
	C639.991272,1051.808838 639.991272,1059.219727 639.991272,1067.170776 
	C637.909790,1067.284668 636.205383,1067.377930 634.044250,1067.496216 
	C634.044250,1059.654297 634.044250,1052.251709 634.044250,1044.298340 
	C631.276489,1044.131104 628.887451,1043.986816 626.120239,1043.819580 
	C626.032776,1042.268921 625.955200,1040.892822 625.845520,1038.947388 
	C628.349854,1038.947388 630.466309,1038.947388 633.072510,1038.948120 
z"/>
<path fill="#1B2742" opacity="1.000000" stroke="none" 
	d="
M461.100464,971.318604 
	C462.972198,972.166809 465.067871,973.157043 466.857941,974.542297 
	C476.841370,982.268372 493.546509,977.327393 496.905518,966.041260 
	C497.116180,965.333374 497.782410,964.761108 498.579132,964.062866 
	C497.469177,972.315125 492.033295,977.029907 484.329895,978.988770 
	C475.286469,981.288391 467.339996,979.002563 461.100464,971.318604 
z"/>
<path fill="#8649EA" opacity="1.000000" stroke="none" 
	d="
M943.168518,1067.142578 
	C942.882446,1065.206787 942.405884,1063.243286 943.099487,1061.871338 
	C943.439148,1061.199341 946.227112,1061.108887 947.392822,1061.726196 
	C948.262146,1062.186523 948.919067,1065.173340 948.614868,1065.365723 
	C947.087524,1066.331787 945.212830,1066.748901 943.168518,1067.142578 
z"/>
<path fill="#615AEB" opacity="1.000000" stroke="none" 
	d="
M581.356934,1061.088135 
	C583.277344,1061.994629 584.963989,1062.894653 586.246460,1064.193726 
	C586.457153,1064.407227 585.079041,1067.096313 584.100586,1067.349731 
	C582.846130,1067.674927 580.160278,1066.908081 580.026550,1066.229980 
	C579.721252,1064.681763 580.594055,1062.901001 581.356934,1061.088135 
z"/>
<path fill="#814CEA" opacity="1.000000" stroke="none" 
	d="
M876.707703,650.265259 
	C875.939819,644.865356 876.741882,644.109192 883.549561,643.993286 
	C881.651855,646.052734 879.337891,648.115356 876.707703,650.265259 
z"/>
<path fill="#814CEA" opacity="1.000000" stroke="none" 
	d="
M861.327026,660.799072 
	C860.540710,656.490173 862.069824,654.745789 866.812622,656.932495 
	C865.337036,658.303650 863.492920,659.512939 861.327026,660.799072 
z"/>
<path fill="#946EED" opacity="1.000000" stroke="none" 
	d="
M916.119812,591.714233 
	C916.098328,590.386658 916.295349,588.799805 916.721252,587.072632 
	C916.746155,588.439819 916.542236,589.947449 916.119812,591.714233 
z"/>
<path fill="#946EED" opacity="1.000000" stroke="none" 
	d="
M917.984436,584.664062 
	C917.788025,583.673767 917.826965,582.422791 918.131958,581.049927 
	C918.338684,582.086487 918.279236,583.244873 917.984436,584.664062 
z"/>
<path fill="#8649EA" opacity="1.000000" stroke="none" 
	d="
M831.575317,183.262329 
	C831.301514,184.137024 830.679077,184.876129 830.056580,185.615234 
	C829.706909,184.962860 829.357239,184.310486 829.002563,183.335403 
	C829.740540,183.050705 830.483643,183.088730 831.575317,183.262329 
z"/>
<path fill="#814CEA" opacity="1.000000" stroke="none" 
	d="
M869.307739,655.831421 
	C870.103271,654.950989 871.202820,653.983215 872.695129,653.024414 
	C871.929199,653.937012 870.770508,654.840515 869.307739,655.831421 
z"/>
<path fill="#946EED" opacity="1.000000" stroke="none" 
	d="
M917.011353,261.672058 
	C916.521057,261.117188 916.066406,260.235260 915.871643,259.160583 
	C916.436707,259.760223 916.741943,260.552612 917.011353,261.672058 
z"/>
<path fill="#946EED" opacity="1.000000" stroke="none" 
	d="
M918.979126,578.800781 
	C918.726440,578.387390 918.645813,577.827515 918.783447,577.135742 
	C919.051453,577.553955 919.101257,578.104126 918.979126,578.800781 
z"/>
<path fill="#814CEA" opacity="1.000000" stroke="none" 
	d="
M890.224731,637.764526 
	C890.209351,637.368835 890.448669,636.838928 890.983398,636.230957 
	C891.012329,636.645386 890.745911,637.137878 890.224731,637.764526 
z"/>
<path fill="#946EED" opacity="1.000000" stroke="none" 
	d="
M914.173218,595.942505 
	C913.987976,595.806824 914.044434,595.536194 914.388428,595.163879 
	C914.477417,595.289001 914.390381,595.537415 914.173218,595.942505 
z"/>
<path fill="#946EED" opacity="1.000000" stroke="none" 
	d="
M913.158752,598.907532 
	C912.984497,598.762268 913.057922,598.495483 913.426025,598.145020 
	C913.508179,598.275574 913.403442,598.517090 913.158752,598.907532 
z"/>
<path fill="#814CEA" opacity="1.000000" stroke="none" 
	d="
M891.451050,636.139771 
	C891.313843,635.908752 891.456177,635.579224 891.840942,635.116272 
	C891.965759,635.335693 891.848206,635.688538 891.451050,636.139771 
z"/>
<path fill="#814CEA" opacity="1.000000" stroke="none" 
	d="
M875.401550,651.363464 
	C875.299561,651.130432 875.474792,650.753296 875.957642,650.281311 
	C876.069763,650.530762 875.874268,650.875061 875.401550,651.363464 
z"/>
<path fill="#FDFDFE" opacity="1.000000" stroke="none" 
	d="
M457.615723,277.973083 
	C544.692017,277.815735 631.370911,277.759888 718.510132,277.630981 
	C723.726990,278.678009 728.483521,279.798035 733.619995,280.954041 
	C734.767212,281.391998 735.534485,281.793976 736.811401,282.382294 
	C737.321045,282.568665 737.783142,282.664215 737.783142,282.664215 
	C762.963379,297.263489 773.880432,319.717316 773.870361,348.190247 
	C773.867065,357.616882 773.869812,367.043488 773.869812,377.581451 
	C798.101440,359.544128 821.507568,342.121307 845.113647,324.416992 
	C849.991577,320.732880 855.292664,321.080322 859.803772,323.456177 
	C864.542908,325.952057 866.671143,330.883362 866.674500,336.421204 
	C866.683411,351.057281 866.679810,365.693359 866.682129,380.329437 
	C866.688965,422.241852 866.696228,464.154266 866.698059,506.947571 
	C866.004395,511.510437 865.316040,515.192444 864.627686,518.874451 
	C864.142212,519.403381 863.656738,519.932312 863.082275,520.717163 
	C855.205994,526.056213 851.032227,526.024048 843.473267,520.696594 
	C836.182373,515.558105 828.933167,510.360352 821.350830,505.040100 
	C820.267822,504.052948 819.609680,503.067108 818.714844,502.397797 
	C804.884094,492.052917 791.024780,481.746155 777.162109,471.444061 
	C776.411011,470.885925 775.572083,470.446014 774.199585,469.594788 
	C774.067749,471.581024 773.896057,472.979950 773.894165,474.379089 
	C773.873901,489.328308 774.367432,504.298920 773.712524,519.219482 
	C773.257996,529.576416 771.233154,539.864441 769.759155,550.846497 
	C769.583008,551.902832 769.557678,552.295898 769.532349,552.688965 
	C769.532288,552.688965 769.493896,552.481384 769.083496,552.430176 
	C768.478943,551.607910 768.133179,550.840698 768.112976,550.065002 
	C767.687195,533.690063 762.782837,518.555847 754.570068,504.603638 
	C747.562134,492.698242 737.664978,483.539276 723.500916,481.617493 
	C713.676392,480.284515 703.569885,480.807617 693.592468,480.889801 
	C684.540466,480.964386 676.341248,484.017151 668.815247,489.065125 
	C666.081543,490.898743 665.474365,492.311249 667.463806,495.400543 
	C675.976318,508.618408 679.844849,523.297729 679.912476,538.956604 
	C679.991638,557.281494 679.893921,575.607178 679.872925,593.932495 
	C676.852478,594.007263 673.831909,594.081970 670.380005,593.619629 
	C669.951172,581.098633 670.069458,569.113281 669.919434,557.131287 
	C669.800903,547.664856 670.196838,538.084839 668.895874,528.760132 
	C664.613953,498.069550 643.527649,476.437012 613.245605,473.678406 
	C595.462646,472.058380 577.284851,472.886139 559.455078,474.498138 
	C551.090271,475.254395 542.324219,479.227386 535.137756,483.894775 
	C515.337463,496.754395 506.565643,516.219238 506.031982,539.414368 
	C505.607117,557.879456 505.821991,576.359253 505.752869,594.832520 
	C502.718719,594.619385 499.684540,594.406189 496.252625,593.645874 
	C495.874634,574.788147 495.829071,556.477173 495.935150,538.166992 
	C496.016754,524.080444 499.455597,510.845428 506.598358,498.645569 
	C507.989838,496.268982 509.537842,493.984009 511.419037,491.017456 
	C506.780914,488.569885 502.742615,485.814636 498.290314,484.203125 
	C483.301392,478.777832 467.694702,479.475433 452.442596,481.958679 
	C435.582031,484.703827 425.478882,496.713745 418.058167,511.222382 
	C409.388092,528.173767 407.341766,546.358643 408.121613,565.059814 
	C405.845276,561.888855 403.148407,558.936035 401.369354,555.507080 
	C395.379822,543.963196 392.453644,531.672058 392.599396,518.562622 
	C392.806396,499.943176 392.601685,481.319122 392.415955,462.320953 
	C392.356415,450.929291 392.453796,439.913696 392.539673,428.088531 
	C392.434753,426.515442 392.341309,425.751953 392.247864,424.988464 
	C392.364349,421.297089 392.480835,417.605713 392.538635,413.454865 
	C392.618164,389.905090 392.756378,366.814819 393.131226,343.035828 
	C395.186554,335.898315 397.005188,329.449554 398.823853,323.000763 
	C406.698914,306.122650 418.217987,292.688751 435.289917,284.543732 
	C437.972595,283.263824 440.761841,282.207336 443.763794,280.886292 
	C444.848999,280.541077 445.672211,280.357117 447.036987,280.064148 
	C448.096130,279.736542 448.613708,279.517883 449.131317,279.299255 
	C451.826996,278.891022 454.522705,278.482788 457.615723,277.973083 
M597.548706,359.731964 
	C559.893311,352.651245 527.139648,387.032959 535.043091,425.344360 
	C539.728210,448.054840 559.905823,466.014679 582.876648,467.920380 
	C607.274963,469.944489 629.508362,456.489227 638.296997,434.381012 
	C651.056396,402.284332 632.698730,367.991577 597.548706,359.731964 
M668.490540,447.793915 
	C676.070068,469.837219 696.802673,480.805298 718.338501,474.164886 
	C737.226868,468.340759 748.840393,447.762238 744.800598,427.275085 
	C740.693787,406.447571 719.166809,392.430756 698.630249,396.592651 
	C679.046326,400.561554 661.641541,421.529449 668.490540,447.793915 
M491.433716,470.044708 
	C508.286133,457.596283 513.642456,438.188232 505.496094,419.091339 
	C494.757416,393.917511 461.042511,387.863434 442.237549,407.732208 
	C428.470764,422.277802 426.905731,444.517517 438.561920,459.963196 
	C451.034302,476.490356 471.480469,480.584167 491.433716,470.044708 
z"/>
<path fill="#814CEA" opacity="1.000000" stroke="none" 
	d="
M865.027710,518.880981 
	C865.316040,515.192444 866.004395,511.510437 866.772522,507.411316 
	C870.363342,509.868988 869.644653,515.869324 865.027710,518.880981 
z"/>
<path fill="#FDFDFE" opacity="1.000000" stroke="none" 
	d="
M621.082886,844.977417 
	C651.177551,845.575623 672.398987,870.791077 668.610596,900.892334 
	C664.979675,929.742737 643.902039,947.036255 615.955688,944.094055 
	C595.782349,941.970215 580.139587,926.158142 576.498413,904.209412 
	C572.285767,878.816772 584.831238,855.341125 606.985046,847.716858 
	C611.328918,846.221924 616.065125,845.866638 621.082886,844.977417 
z"/>
<path fill="#7153EC" opacity="1.000000" stroke="none" 
	d="
M737.797852,282.420532 
	C737.783142,282.664215 737.321045,282.568665 737.135559,282.423157 
	C737.237549,282.244080 737.525085,282.210449 737.797852,282.420532 
z"/>
<path fill="#843EFC" opacity="1.000000" stroke="none" 
	d="
M506.220581,594.881104 
	C505.821991,576.359253 505.607117,557.879456 506.031982,539.414368 
	C506.565643,516.219238 515.337463,496.754395 535.137756,483.894775 
	C542.324219,479.227386 551.090271,475.254395 559.455078,474.498138 
	C577.284851,472.886139 595.462646,472.058380 613.245605,473.678406 
	C643.527649,476.437012 664.613953,498.069550 668.895874,528.760132 
	C670.196838,538.084839 669.800903,547.664856 669.919434,557.131287 
	C670.069458,569.113281 669.951172,581.098633 669.927307,593.552246 
	C668.215576,594.021118 666.525085,594.020264 664.410889,594.036865 
	C646.633667,594.041748 629.280212,594.029175 611.456848,594.035217 
	C583.632019,594.043152 556.277039,594.032471 528.452026,594.049072 
	C520.884033,594.360840 513.786133,594.645264 506.220581,594.881104 
z"/>
<path fill="#946EED" opacity="1.000000" stroke="none" 
	d="
M680.350586,593.954224 
	C679.893921,575.607178 679.991638,557.281494 679.912476,538.956604 
	C679.844849,523.297729 675.976318,508.618408 667.463806,495.400543 
	C665.474365,492.311249 666.081543,490.898743 668.815247,489.065125 
	C676.341248,484.017151 684.540466,480.964386 693.592468,480.889801 
	C703.569885,480.807617 713.676392,480.284515 723.500916,481.617493 
	C737.664978,483.539276 747.562134,492.698242 754.570068,504.603638 
	C762.782837,518.555847 767.687195,533.690063 768.112976,550.065002 
	C768.133179,550.840698 768.478943,551.607910 768.978027,552.435242 
	C769.477051,553.024475 769.671021,553.557434 769.877930,554.514404 
	C767.609741,558.269409 765.249939,561.549683 763.061279,564.940369 
	C753.833862,579.235352 742.138184,590.175293 724.659729,593.206360 
	C721.743347,593.712036 718.747070,593.949219 715.785522,593.968628 
	C704.133545,594.045166 692.480774,593.985229 680.350586,593.954224 
z"/>
<path fill="#7352EC" opacity="1.000000" stroke="none" 
	d="
M769.834778,552.692200 
	C769.557678,552.295898 769.583008,551.902832 769.750305,551.241577 
	C769.973938,551.547363 770.055603,552.121399 769.834778,552.692200 
z"/>
<path fill="#2D64CE" opacity="1.000000" stroke="none" 
	d="
M408.369141,565.276611 
	C407.341766,546.358643 409.388092,528.173767 418.058167,511.222382 
	C425.478882,496.713745 435.582031,484.703827 452.442596,481.958679 
	C467.694702,479.475433 483.301392,478.777832 498.290314,484.203125 
	C502.742615,485.814636 506.780914,488.569885 511.419037,491.017456 
	C509.537842,493.984009 507.989838,496.268982 506.598358,498.645569 
	C499.455597,510.845428 496.016754,524.080444 495.935150,538.166992 
	C495.829071,556.477173 495.874634,574.788147 495.846466,593.570740 
	C487.344818,594.036316 478.833252,593.668091 470.362305,594.099121 
	C452.992523,594.983093 437.133850,590.826843 422.401367,581.011963 
	C418.636871,577.420166 415.146271,573.938721 411.834869,570.294434 
	C410.553223,568.883972 409.677399,567.104736 408.369141,565.276611 
z"/>
<path fill="#456AEB" opacity="1.000000" stroke="none" 
	d="
M398.492310,323.066864 
	C397.005188,329.449554 395.186554,335.898315 393.191956,342.675171 
	C391.606628,335.570862 391.110626,328.375000 398.492310,323.066864 
z"/>
<path fill="#515FEA" opacity="1.000000" stroke="none" 
	d="
M493.759979,275.729279 
	C492.605286,276.000580 491.223999,276.001892 489.428650,276.000977 
	C490.520844,275.818939 492.027100,275.639099 493.759979,275.729279 
z"/>
<path fill="#3F69EA" opacity="1.000000" stroke="none" 
	d="
M448.982788,279.034973 
	C448.613708,279.517883 448.096130,279.736542 447.291077,279.929871 
	C447.613861,279.526581 448.224091,279.148651 448.982788,279.034973 
z"/>
<path fill="#3F69EA" opacity="1.000000" stroke="none" 
	d="
M391.948120,425.013550 
	C392.341309,425.751953 392.434753,426.515442 392.391571,427.645569 
	C391.539185,427.527863 390.823425,427.043518 390.107666,426.559143 
	C390.621246,426.052307 391.134827,425.545471 391.948120,425.013550 
z"/>
<path fill="#615AEB" opacity="1.000000" stroke="none" 
	d="
M574.641968,275.940643 
	C575.171448,275.570526 575.989990,275.238342 576.808533,274.906158 
	C576.889587,275.175446 576.970642,275.444702 577.051758,275.713959 
	C576.344849,275.802155 575.638000,275.890350 574.641968,275.940643 
z"/>
<path fill="#FDFDFE" opacity="1.000000" stroke="none" 
	d="
M546.457886,1051.535278 
	C546.177673,1049.061157 546.177673,1046.938721 546.177673,1044.884644 
	C546.500183,1044.600464 546.781982,1044.172363 546.974426,1044.209473 
	C549.863159,1044.763916 552.789246,1045.232422 555.560364,1046.158569 
	C555.925842,1046.280640 555.842834,1049.891113 555.359741,1050.051025 
	C552.587402,1050.969604 549.631653,1051.334351 546.457886,1051.535278 
z"/>
<path fill="#FDFDFE" opacity="1.000000" stroke="none" 
	d="
M675.266357,1043.854492 
	C680.040527,1043.589355 683.056091,1045.416870 684.355286,1049.666992 
	C685.612915,1053.781372 685.131042,1057.666748 681.788208,1060.604736 
	C678.920471,1063.125244 675.505249,1063.481934 672.057190,1061.674927 
	C668.241638,1059.675293 667.610901,1056.159180 667.891479,1052.318359 
	C668.215210,1047.886353 670.223572,1044.787598 675.266357,1043.854492 
z"/>
<path fill="#FDFDFE" opacity="1.000000" stroke="none" 
	d="
M918.850342,1048.814941 
	C915.790039,1050.574829 912.801819,1051.930908 908.755981,1053.766846 
	C908.755981,1049.431396 908.755981,1046.927002 908.755981,1043.856689 
	C912.666565,1044.665771 917.833191,1041.422974 918.850342,1048.814941 
z"/>
<path fill="#FDFDFE" opacity="1.000000" stroke="none" 
	d="
M423.737610,1056.932129 
	C422.448395,1049.425659 424.667358,1044.848999 429.705505,1043.972046 
	C434.557373,1043.127319 438.431976,1045.443359 439.698486,1049.945190 
	C441.147217,1055.094604 438.998779,1060.344971 434.726318,1062.096680 
	C430.312622,1063.906372 426.618317,1062.274414 423.737610,1056.932129 
z"/>
<path fill="#843EFC" opacity="1.000000" stroke="none" 
	d="
M597.975342,359.793945 
	C632.698730,367.991577 651.056396,402.284332 638.296997,434.381012 
	C629.508362,456.489227 607.274963,469.944489 582.876648,467.920380 
	C559.905823,466.014679 539.728210,448.054840 535.043091,425.344360 
	C527.139648,387.032959 559.893311,352.651245 597.975342,359.793945 
z"/>
<path fill="#946EED" opacity="1.000000" stroke="none" 
	d="
M668.362366,447.403931 
	C661.641541,421.529449 679.046326,400.561554 698.630249,396.592651 
	C719.166809,392.430756 740.693787,406.447571 744.800598,427.275085 
	C748.840393,447.762238 737.226868,468.340759 718.338501,474.164886 
	C696.802673,480.805298 676.070068,469.837219 668.362366,447.403931 
z"/>
<path fill="#2D64CE" opacity="1.000000" stroke="none" 
	d="
M491.121826,470.234619 
	C471.480469,480.584167 451.034302,476.490356 438.561920,459.963196 
	C426.905731,444.517517 428.470764,422.277802 442.237549,407.732208 
	C461.042511,387.863434 494.757416,393.917511 505.496094,419.091339 
	C513.642456,438.188232 508.286133,457.596283 491.121826,470.234619 
z"/>
</svg>